<?xml version="1.0" encoding="utf-8"?>
<!-- Generator: Adobe Illustrator 23.0.0, SVG Export Plug-In . SVG Version: 6.00 Build 0)  -->
<!DOCTYPE svg PUBLIC "-//W3C//DTD SVG 1.1//EN" "http://www.w3.org/Graphics/SVG/1.1/DTD/svg11.dtd" [
	<!ENTITY ns_extend "http://ns.adobe.com/Extensibility/1.0/">
	<!ENTITY ns_ai "http://ns.adobe.com/AdobeIllustrator/10.0/">
	<!ENTITY ns_graphs "http://ns.adobe.com/Graphs/1.0/">
	<!ENTITY ns_vars "http://ns.adobe.com/Variables/1.0/">
	<!ENTITY ns_imrep "http://ns.adobe.com/ImageReplacement/1.0/">
	<!ENTITY ns_sfw "http://ns.adobe.com/SaveForWeb/1.0/">
	<!ENTITY ns_custom "http://ns.adobe.com/GenericCustomNamespace/1.0/">
	<!ENTITY ns_adobe_xpath "http://ns.adobe.com/XPath/1.0/">
]>
<svg version="1.1" id="Layer_1" xmlns:x="&ns_extend;" xmlns:i="&ns_ai;" xmlns:graph="&ns_graphs;"
	 xmlns="http://www.w3.org/2000/svg" xmlns:xlink="http://www.w3.org/1999/xlink" x="0px" y="0px" viewBox="0 0 30 30"
	 style="enable-background:new 0 0 30 30;" xml:space="preserve">
<style type="text/css">
	.st0{fill:url(#SVGID_1_);}
	.st1{fill:url(#SVGID_2_);}
</style>
<metadata>
	<sfw  xmlns="&ns_sfw;">
		<slices></slices>
		<sliceSourceBounds  bottomLeftOrigin="true" height="27.1" width="27.3" x="1.4" y="1.5"></sliceSourceBounds>
	</sfw>
</metadata>
<g>
	<linearGradient id="SVGID_1_" gradientUnits="userSpaceOnUse" x1="15" y1="15.8" x2="15" y2="1.4">
		<stop  offset="0" style="stop-color:#006B77"/>
		<stop  offset="1" style="stop-color:#0BD8CE"/>
	</linearGradient>
	<path class="st0" d="M15,15.8c3.4,0,6.1-3.2,6.1-7.2c0-5.5-2.7-7.2-6.1-7.2S8.9,3.2,8.9,8.7C8.9,12.6,11.6,15.8,15,15.8"/>
	<linearGradient id="SVGID_2_" gradientUnits="userSpaceOnUse" x1="15" y1="28.5" x2="15" y2="16.125">
		<stop  offset="0" style="stop-color:#006B77"/>
		<stop  offset="1" style="stop-color:#0BD8CE"/>
	</linearGradient>
	<path class="st1" d="M28.5,26.3l-3.1-6.9c-0.1-0.3-0.4-0.6-0.7-0.7l-4.8-2.5c-0.1-0.1-0.2,0-0.3,0c-1.4,1-2.9,1.6-4.6,1.6
		s-3.2-0.5-4.6-1.6c-0.1-0.1-0.2-0.1-0.3,0l-4.8,2.5c-0.3,0.2-0.6,0.4-0.7,0.7l-3.1,6.9c-0.2,0.5-0.2,1,0.1,1.5
		c0.3,0.4,0.8,0.7,1.3,0.7h24.2c0.5,0,1-0.3,1.3-0.7C28.7,27.4,28.7,26.8,28.5,26.3"/>
</g>
</svg>
