<?xml version="1.0" encoding="utf-8"?>
<!-- Generator: Adobe Illustrator 23.0.0, SVG Export Plug-In . SVG Version: 6.00 Build 0)  -->
<svg version="1.1" id="Layer_1" xmlns="http://www.w3.org/2000/svg" xmlns:xlink="http://www.w3.org/1999/xlink" x="0px" y="0px"
	 viewBox="0 0 1996 692" style="enable-background:new 0 0 1996 692;" xml:space="preserve">
<style type="text/css">
	.st0{fill-rule:evenodd;clip-rule:evenodd;fill:none;stroke:#1B9B97;stroke-width:0.5;stroke-miterlimit:10;}
	.st1{fill-rule:evenodd;clip-rule:evenodd;fill:none;stroke:#1B9B97;stroke-width:18;stroke-miterlimit:10;}
	.st2{fill:none;stroke:#1B9B97;stroke-miterlimit:10;}
	.st3{fill-rule:evenodd;clip-rule:evenodd;fill:none;stroke:#1B9B97;stroke-miterlimit:10;}
	.st4{fill-rule:evenodd;clip-rule:evenodd;fill:none;stroke:#004F4F;stroke-width:18;stroke-miterlimit:10;}
	.st5{fill-rule:evenodd;clip-rule:evenodd;fill:none;stroke:#0BD8CE;stroke-width:18;stroke-miterlimit:10;}
	.st6{fill-rule:evenodd;clip-rule:evenodd;fill:url(#SVGID_1_);}
</style>
<path class="st0" d="M1460,599.5"/>
<path class="st1" d="M1208.9,189.9"/>
<path class="st1" d="M1258.4,100.3"/>
<path class="st0" d="M1259.5,270"/>
<path class="st0" d="M1660.5,270"/>
<line class="st2" x1="1504.1" y1="693.1" x2="1504.1" y2="530.8"/>
<path class="st3" d="M1504.1,652.5c171.2,0,310-138.8,310-310"/>
<path class="st3" d="M1504.1,32.4c-171.2,0-310,138.8-310,310"/>
<line class="st2" x1="1504.1" y1="153.9" x2="1504.1" y2="0"/>
<line class="st2" x1="1299.3" y1="342" x2="1072.5" y2="342.5"/>
<line class="st2" x1="1915.3" y1="342.5" x2="1708.4" y2="342.5"/>
<path class="st4" d="M1462,77.6c-31.3,4.9-60.8,15.2-87.5,29.9"/>
<path class="st4" d="M1721.2,500c18.6-25.6,32.2-53.7,40.7-83"/>
<path class="st5" d="M1299.2,169.1c-22.4,26.6-39.7,57.6-50.5,91.5"/>
<path class="st5" d="M1551.9,606.6c34.2-6.3,67.3-19.1,97.2-38.4"/>
<circle class="st3" cx="1504.1" cy="342.5" r="231.9"/>
<path class="st3" d="M1708.9,342.5c0-113.1-91.7-204.8-204.8-204.8"/>
<path class="st3" d="M1299.3,342.5c0,113.1,91.7,204.8,204.8,204.8"/>
<linearGradient id="SVGID_1_" gradientUnits="userSpaceOnUse" x1="1529.0594" y1="117.787" x2="1476.23" y2="568.1871">
	<stop  offset="0" style="stop-color:#00717D"/>
	<stop  offset="0.23" style="stop-color:#83CDCC"/>
	<stop  offset="0.49" style="stop-color:#006B77"/>
	<stop  offset="0.71" style="stop-color:#006B77"/>
	<stop  offset="0.89" style="stop-color:#6DC6C3"/>
	<stop  offset="1" style="stop-color:#030D0F"/>
</linearGradient>
<path class="st6" d="M1382.6,236.3c59.5-65.2,160.6-69.9,225.8-10.4c11.3,10.3,20.8,21.9,28.5,34.3c54.5-22.2,111-50.5,175.8-82.4
	c-87.1,46.5-141.7,81.9-163.8,106c10.5,25.9,14,54.2,10.3,81.7c25.9,6.7,54,14.3,84.3,22.6c-30.5-6-59-10-86-12.3
	c-5.5,27.4-18.3,53.7-38.5,75.9c-59.5,65.2-160.6,69.9-225.8,10.4c-11.6-10.6-21.3-22.5-29.1-35.3c-52.8,22.2-107.9,50.1-171.3,81.3
	c83-44.3,136.5-78.5,160.5-102.6c-11.6-27.9-15-58.5-10.1-88c-24.7-6.4-51.4-13.6-80-21.5c28.9,5.7,56.1,9.6,81.9,11.9
	C1350.9,282.1,1363.4,257.4,1382.6,236.3L1382.6,236.3z M1638.7,309.7c-41.3-12.3-94.7-6.9-160.3,16.3c36.3,4.7,93.1,17,170.6,36.9
	c3.3-23.4,0.7-47.4-7.5-69.7C1637.4,299.8,1636.5,305.3,1638.7,309.7L1638.7,309.7z M1626.8,264.2c-6.4-9.7-14.1-18.8-23.1-26.9
	c-58.4-53.2-148.8-49-202,9.3c-16.9,18.5-28,40.2-33.4,63C1465.6,314.9,1544.4,296.8,1626.8,264.2L1626.8,264.2z M1365.8,323.5
	c-2.4,17.8-1.5,35.9,2.7,53.4c41.1,11.5,95,4.2,159.5-18.6C1493.1,353.7,1439,342.1,1365.8,323.5L1365.8,323.5z M1385.7,418.1
	c6.8,11.1,15.3,21.4,25.4,30.6c58.4,53.2,148.8,49,202-9.3c17.2-18.9,28.4-41.1,33.7-64.3C1547.2,368.2,1468.2,385.6,1385.7,418.1z"
	/>
<path class="st3" d="M1720.8,309.8c0.1,0,0.2,0,0.2,0h352.3"/>
<path class="st3" d="M1720.8,375.2c0.1,0,0.2,0,0.2,0h352.3"/>
<path class="st3" d="M0,310.3h1276.3"/>
<path class="st3" d="M0,375.7h1276.3"/>
<path class="st1" d="M1387.4,100.6c-46.9,22.6-85.7,58.3-112.3,101.7"/>
<path class="st1" d="M1627.8,580.8c46.2-24,83.9-60.8,109.3-105"/>
</svg>
