<?xml version="1.0" encoding="utf-8"?>
<!-- Generator: Adobe Illustrator 23.0.0, SVG Export Plug-In . SVG Version: 6.00 Build 0)  -->
<!DOCTYPE svg PUBLIC "-//W3C//DTD SVG 1.1//EN" "http://www.w3.org/Graphics/SVG/1.1/DTD/svg11.dtd" [
	<!ENTITY ns_extend "http://ns.adobe.com/Extensibility/1.0/">
	<!ENTITY ns_ai "http://ns.adobe.com/AdobeIllustrator/10.0/">
	<!ENTITY ns_graphs "http://ns.adobe.com/Graphs/1.0/">
	<!ENTITY ns_vars "http://ns.adobe.com/Variables/1.0/">
	<!ENTITY ns_imrep "http://ns.adobe.com/ImageReplacement/1.0/">
	<!ENTITY ns_sfw "http://ns.adobe.com/SaveForWeb/1.0/">
	<!ENTITY ns_custom "http://ns.adobe.com/GenericCustomNamespace/1.0/">
	<!ENTITY ns_adobe_xpath "http://ns.adobe.com/XPath/1.0/">
]>
<svg version="1.1" id="Layer_1" xmlns:x="&ns_extend;" xmlns:i="&ns_ai;" xmlns:graph="&ns_graphs;"
	 xmlns="http://www.w3.org/2000/svg" xmlns:xlink="http://www.w3.org/1999/xlink" x="0px" y="0px" viewBox="0 0 30 30"
	 style="enable-background:new 0 0 30 30;" xml:space="preserve">
<style type="text/css">
	.st0{fill:url(#SVGID_1_);}
	.st1{fill:url(#SVGID_2_);}
	.st2{fill:url(#SVGID_3_);}
	.st3{fill:url(#SVGID_4_);}
	.st4{fill:url(#SVGID_5_);}
	.st5{fill:url(#SVGID_6_);}
</style>
<metadata>
	<sfw  xmlns="&ns_sfw;">
		<slices></slices>
		<sliceSourceBounds  bottomLeftOrigin="true" height="254.9" width="195" x="-96.5" y="1.3"></sliceSourceBounds>
	</sfw>
</metadata>
<g>
	<linearGradient id="SVGID_1_" gradientUnits="userSpaceOnUse" x1="18.7883" y1="28.195" x2="18.7883" y2="20.695">
		<stop  offset="0" style="stop-color:#006B77"/>
		<stop  offset="1" style="stop-color:#0BD8CE"/>
	</linearGradient>
	<path class="st0" d="M21.4,20.7c-1.5,2.2-3.2,4.4-4.8,6c-0.6,0.6-1.1,1.1-1.5,1.5c4.7-0.1,9.1-2.6,6.7-6.9
		C21.6,21,21.5,20.8,21.4,20.7"/>
	<linearGradient id="SVGID_2_" gradientUnits="userSpaceOnUse" x1="9.7077" y1="27.395" x2="9.7077" y2="1.305">
		<stop  offset="0" style="stop-color:#006B77"/>
		<stop  offset="1" style="stop-color:#0BD8CE"/>
	</linearGradient>
	<path class="st1" d="M11,22.9c0-1.1,0.9-2,2-2c0.1,0,0.3,0,0.4,0c0.8-1.4,1.6-2.9,2.6-4.3c0.7-1.1,1.4-2,2-2.7
		c-0.1-1.1,0-2.4,0.3-4C20,1.7,5.9-4.1,1.8,9.2c-2.5,8.2,0.8,14.4,8.2,17.9c0.3,0.1,0.5,0.2,0.8,0.3c0.1-0.8,0.4-1.8,0.9-3.1
		C11.3,24,11,23.5,11,22.9 M4.3,13.3c0-1.1,0.9-2,2-2s2,0.9,2,2s-0.9,2-2,2S4.3,14.4,4.3,13.3 M7.9,20.9c-1.1,0-2-0.9-2-2s0.9-2,2-2
		s2,0.9,2,2S9,20.9,7.9,20.9 M9.6,6.6c0-1.4,1.1-2.5,2.5-2.5s2.5,1.1,2.5,2.5s-1.1,2.5-2.5,2.5S9.6,8,9.6,6.6"/>
	<linearGradient id="SVGID_3_" gradientUnits="userSpaceOnUse" x1="17.5185" y1="28.695" x2="17.5185" y2="12.695">
		<stop  offset="0" style="stop-color:#006B77"/>
		<stop  offset="1" style="stop-color:#0BD8CE"/>
	</linearGradient>
	<path class="st2" d="M21.7,13.9L21.7,13.9c-0.5-0.3-0.9-0.7-1.2-1.2c-1,0.7-2.2,2-3.9,4.5c-3.3,5-5.8,10.7-4.7,11.4
		c0.1,0.1,0.2,0.1,0.3,0.1c1.5,0,5.4-4.2,8.5-8.7c1.7-2.5,2.5-4.2,2.7-5.4c-0.3,0-0.7-0.1-1-0.3C22.2,14.2,21.9,14.1,21.7,13.9"/>
	<linearGradient id="SVGID_4_" gradientUnits="userSpaceOnUse" x1="24.6934" y1="13.8951" x2="24.6934" y2="5.3951">
		<stop  offset="0" style="stop-color:#006B77"/>
		<stop  offset="1" style="stop-color:#0BD8CE"/>
	</linearGradient>
	<path class="st3" d="M28.6,6.6c-1.5,0.6-1.5,1.6-1.4,3.2c0.1,1.3,0.2,2.7-1.2,3.6c-0.5,0.3-1,0.5-1.5,0.5c-0.1,0-0.1,0-0.2,0
		c-0.5,0-1-0.1-1.5-0.3c-1-0.4-1.8-1.2-2.2-2.1c-0.2-0.5-0.3-1.2-0.2-1.8c0.1-0.8,0.6-1.9,2.2-2.9C24,5.9,26,5.5,28.4,5.4
		c0.3,0,0.5,0.2,0.6,0.5C29.1,6.2,28.9,6.5,28.6,6.6z"/>
</g>
<linearGradient id="SVGID_5_" gradientUnits="userSpaceOnUse" x1="17.5112" y1="-189.8817" x2="124.0898" y2="-191.1907">
	<stop  offset="0" style="stop-color:#006B77"/>
	<stop  offset="1" style="stop-color:#0BD8CE"/>
</linearGradient>
<path class="st4" d="M62.5-156.7h-43c-18.5,0-33.5-15-33.5-33.5v0c0-18.5,15-33.5,33.5-33.5h43c18.5,0,33.5,15,33.5,33.5v0
	C96-171.7,81-156.7,62.5-156.7z"/>
<linearGradient id="SVGID_6_" gradientUnits="userSpaceOnUse" x1="-582.5" y1="-190.1702" x2="-387.5" y2="-190.1702" gradientTransform="matrix(-1 0 0 1 -484 0)">
	<stop  offset="0" style="stop-color:#006B77"/>
	<stop  offset="1" style="stop-color:#0BD8CE"/>
</linearGradient>
<path class="st5" d="M-60.5-154.2h123c19.9,0,36-16.1,36-36s-16.1-36-36-36h-123c-19.9,0-36,16.1-36,36S-80.4-154.2-60.5-154.2z
	 M62.5-221.2c17.1,0,31,13.9,31,31s-13.9,31-31,31h-123c-17.1,0-31-13.9-31-31s13.9-31,31-31H62.5z"/>
</svg>
