<?xml version="1.0" encoding="utf-8"?>
<!-- Generator: Adobe Illustrator 23.0.0, SVG Export Plug-In . SVG Version: 6.00 Build 0)  -->
<!DOCTYPE svg PUBLIC "-//W3C//DTD SVG 1.1//EN" "http://www.w3.org/Graphics/SVG/1.1/DTD/svg11.dtd" [
	<!ENTITY ns_extend "http://ns.adobe.com/Extensibility/1.0/">
	<!ENTITY ns_ai "http://ns.adobe.com/AdobeIllustrator/10.0/">
	<!ENTITY ns_graphs "http://ns.adobe.com/Graphs/1.0/">
	<!ENTITY ns_vars "http://ns.adobe.com/Variables/1.0/">
	<!ENTITY ns_imrep "http://ns.adobe.com/ImageReplacement/1.0/">
	<!ENTITY ns_sfw "http://ns.adobe.com/SaveForWeb/1.0/">
	<!ENTITY ns_custom "http://ns.adobe.com/GenericCustomNamespace/1.0/">
	<!ENTITY ns_adobe_xpath "http://ns.adobe.com/XPath/1.0/">
]>
<svg version="1.1" id="Layer_1" xmlns:x="&ns_extend;" xmlns:i="&ns_ai;" xmlns:graph="&ns_graphs;"
	 xmlns="http://www.w3.org/2000/svg" xmlns:xlink="http://www.w3.org/1999/xlink" x="0px" y="0px" viewBox="0 0 30 30"
	 style="enable-background:new 0 0 30 30;" xml:space="preserve">
<style type="text/css">
	.st0{fill:url(#SVGID_1_);}
	.st1{fill:url(#SVGID_2_);}
</style>
<metadata>
	<sfw  xmlns="&ns_sfw;">
		<slices></slices>
		<sliceSourceBounds  bottomLeftOrigin="true" height="18.8" width="27" x="1.5" y="5.6"></sliceSourceBounds>
	</sfw>
</metadata>
<g>
	<linearGradient id="SVGID_1_" gradientUnits="userSpaceOnUse" x1="14.9828" y1="14.9" x2="14.9828" y2="5.6">
		<stop  offset="0" style="stop-color:#006B77"/>
		<stop  offset="1" style="stop-color:#0BD8CE"/>
	</linearGradient>
	<path class="st0" d="M3.6,6.7l9.7,7.7c0.4,0.3,1,0.5,1.6,0.5s1.2-0.1,1.6-0.5l9.7-7.7C27.1,6.1,27,5.6,26,5.6H15H4
		C3,5.6,2.9,6.1,3.6,6.7"/>
	<linearGradient id="SVGID_2_" gradientUnits="userSpaceOnUse" x1="15" y1="24.4" x2="15" y2="8.3921">
		<stop  offset="0" style="stop-color:#006B77"/>
		<stop  offset="1" style="stop-color:#0BD8CE"/>
	</linearGradient>
	<path class="st1" d="M27.1,8.7l-10.6,8.1c-0.4,0.3-0.9,0.4-1.4,0.4s-1-0.1-1.4-0.4L2.9,8.7C2.1,8.1,1.5,8.4,1.5,9.4v13.2
		c0,1,0.8,1.8,1.8,1.8H15h11.7c1,0,1.8-0.8,1.8-1.8V9.4C28.5,8.4,27.9,8.1,27.1,8.7"/>
</g>
</svg>
