<?xml version="1.0" encoding="utf-8"?>
<!-- Generator: Adobe Illustrator 23.0.0, SVG Export Plug-In . SVG Version: 6.00 Build 0)  -->
<svg version="1.1" id="Layer_1" xmlns="http://www.w3.org/2000/svg" xmlns:xlink="http://www.w3.org/1999/xlink" x="0px" y="0px"
	 viewBox="0 0 215 85" style="enable-background:new 0 0 215 85;" xml:space="preserve">
<style type="text/css">
	.st0{fill:url(#SVGID_1_);}
	.st1{fill:url(#SVGID_2_);}
	.st2{fill:url(#SVGID_3_);}
	.st3{fill:none;stroke:url(#SVGID_4_);stroke-width:6;stroke-miterlimit:10;}
	.st4{fill:url(#SVGID_5_);}
	.st5{fill:url(#SVGID_6_);}
	.st6{fill:#FFFFFF;}
</style>
<g>
	
		<linearGradient id="SVGID_1_" gradientUnits="userSpaceOnUse" x1="109.9632" y1="28.1649" x2="109.9632" y2="57.739" gradientTransform="matrix(1 0 0 -1 0 86.4)">
		<stop  offset="0" style="stop-color:#006B77"/>
		<stop  offset="1" style="stop-color:#0BD8CE"/>
	</linearGradient>
	<path class="st0" d="M119.3,31.6c2.3,2,4,4.6,4.8,7.9h-7.5c-0.5-1.3-1.5-2.3-2.5-3.2c-1.2-0.8-2.5-1.2-4.1-1.2
		c-2.1,0-3.7,0.8-5,2.3s-1.9,3.6-1.9,6.1s0.6,4.5,1.9,6.1c1.3,1.5,2.9,2.3,5,2.3c1.6,0,2.9-0.4,4.1-1.2s2-1.9,2.5-3.2h7.5
		c-0.6,3.3-2.3,5.9-4.8,7.9c-2.3,2-5.5,2.9-9.2,2.9c-2.7,0-5.3-0.6-7.5-1.9c-2.1-1.2-3.8-3-5-5.3s-1.7-4.9-1.7-7.7
		c0-2.9,0.5-5.4,1.7-7.7s2.7-4,5-5.3c2.1-1.2,4.6-1.9,7.5-1.9C113.9,28.7,117,29.6,119.3,31.6z"/>
	
		<linearGradient id="SVGID_2_" gradientUnits="userSpaceOnUse" x1="138.2054" y1="28.0086" x2="138.2054" y2="58.1108" gradientTransform="matrix(1 0 0 -1 0 86.4)">
		<stop  offset="0" style="stop-color:#006B77"/>
		<stop  offset="1" style="stop-color:#0BD8CE"/>
	</linearGradient>
	<path class="st1" d="M147.8,54.2c-0.8,1.3-2,2.3-3.4,3c-1.6,0.8-3.4,1.2-5.5,1.2c-3.3,0-5.9-0.8-8-2.3c-2.1-1.6-3.3-3.8-3.4-6.7
		h7.5c0.2,1.1,0.5,2,1.2,2.7c0.6,0.6,1.6,0.9,2.7,0.9c0.9,0,1.6-0.2,2.1-0.8c0.5-0.5,0.8-1.2,0.8-2s-0.2-1.3-0.6-1.9
		c-0.5-0.5-1.1-0.9-1.9-1.2c-0.6-0.2-1.7-0.6-3-1.2c-1.9-0.6-3.3-1.2-4.5-1.9c-1.2-0.7-2.1-1.5-3-2.7c-0.8-1.2-1.3-2.7-1.3-4.6
		c0-1.7,0.4-3.2,1.3-4.5s2.1-2.3,3.7-2.9s3.3-1.1,5.3-1.1c3.3,0,5.8,0.8,7.8,2.3c1.9,1.6,3,3.7,3.3,6.3h-7.7
		c-0.2-0.9-0.5-1.7-1.1-2.3s-1.3-0.8-2.3-0.8c-0.8,0-1.5,0.2-2,0.6c-0.5,0.4-0.8,1.1-0.8,2c0,0.6,0.2,1.3,0.6,1.7s1.1,0.9,1.7,1.2
		c0.6,0.2,1.7,0.6,3,1.2c1.9,0.6,3.4,1.3,4.6,1.9c1.2,0.6,2.3,1.6,3,2.7c0.8,1.2,1.3,2.7,1.3,4.6C149,51.4,148.6,52.8,147.8,54.2z"
		/>
	
		<linearGradient id="SVGID_3_" gradientUnits="userSpaceOnUse" x1="163.2054" y1="28.0086" x2="163.2054" y2="58.1108" gradientTransform="matrix(1 0 0 -1 0 86.4)">
		<stop  offset="0" style="stop-color:#006B77"/>
		<stop  offset="1" style="stop-color:#0BD8CE"/>
	</linearGradient>
	<path class="st2" d="M172.8,54.2c-0.8,1.3-2,2.3-3.4,3c-1.6,0.8-3.4,1.2-5.5,1.2c-3.3,0-5.9-0.8-8-2.3s-3.3-3.8-3.4-6.7h7.5
		c0.2,1.1,0.5,2,1.2,2.7s1.6,0.9,2.7,0.9c0.9,0,1.6-0.2,2.1-0.8c0.5-0.5,0.8-1.2,0.8-2s-0.2-1.3-0.6-1.9c-0.5-0.5-1.1-0.9-1.9-1.2
		c-0.6-0.2-1.7-0.6-3-1.2c-1.9-0.6-3.3-1.2-4.5-1.9c-1.2-0.6-2.1-1.5-3-2.7c-0.8-1.2-1.3-2.7-1.3-4.6c0-1.7,0.4-3.2,1.3-4.5
		c0.9-1.3,2.1-2.3,3.7-2.9c1.6-0.6,3.3-1.1,5.3-1.1c3.3,0,5.8,0.8,7.8,2.3c1.9,1.6,3,3.7,3.3,6.3h-7.7c-0.2-0.9-0.5-1.7-1.1-2.3
		c-0.5-0.5-1.3-0.8-2.3-0.8c-0.8,0-1.5,0.2-2,0.6c-0.5,0.4-0.8,1.1-0.8,2c0,0.6,0.2,1.3,0.6,1.7s1.1,0.9,1.7,1.2
		c0.6,0.2,1.7,0.6,3,1.2c1.9,0.6,3.4,1.3,4.6,1.9c1.2,0.6,2.3,1.6,3,2.7c0.8,1.2,1.3,2.7,1.3,4.6C174,51.4,173.6,52.8,172.8,54.2z"
		/>
</g>
<linearGradient id="SVGID_4_" gradientUnits="userSpaceOnUse" x1="27.1437" y1="43.3914" x2="213.7139" y2="43.3914">
	<stop  offset="0" style="stop-color:#006B77"/>
	<stop  offset="1" style="stop-color:#0BD8CE"/>
</linearGradient>
<path class="st3" d="M186.2,67.9H54.7c-13.6,0-24.5-11-24.5-24.5v0c0-13.6,11-24.5,24.5-24.5h131.5c13.6,0,24.5,11,24.5,24.5v0
	C210.7,56.9,199.7,67.9,186.2,67.9z"/>
<linearGradient id="SVGID_5_" gradientUnits="userSpaceOnUse" x1="36.236" y1="4.35" x2="36.236" y2="83.45" gradientTransform="matrix(1 0 0 -1 0 86.4)">
	<stop  offset="0" style="stop-color:#006B77"/>
	<stop  offset="1" style="stop-color:#0BD8CE"/>
</linearGradient>
<path class="st4" d="M67.9,13.7v57.5c0,6-4.8,10.8-10.8,10.8H15.4c-6,0-10.8-4.8-10.8-10.8V23.1L25,2.9h32.1
	C63,2.9,67.9,7.8,67.9,13.7z"/>
<linearGradient id="SVGID_6_" gradientUnits="userSpaceOnUse" x1="14.536" y1="73.4001" x2="21.7198" y2="66.2164" gradientTransform="matrix(1 0 0 -1 0 86.4)">
	<stop  offset="0" style="stop-color:#006B77"/>
	<stop  offset="1" style="stop-color:#0BD8CE"/>
</linearGradient>
<path class="st5" d="M25,2.9v9.5c0,6-4.8,10.8-10.8,10.8H4.3L4.6,23L25,2.9z"/>
<g>
	<g>
		<path class="st6" d="M27.6,59.6c0,1.2-1,2.2-2.2,2.2c-0.3,0-6.4-0.1-6.4-10.7c0-6.3-4.1-6.4-4.2-6.4c-1.2,0-2.2-1-2.2-2.2
			c0-0.6,0.2-1.1,0.6-1.5c0.2-0.2,0.3-0.3,0.5-0.4c0.3-0.2,0.6-0.2,1-0.2c0.8,0,4.2-0.5,4.2-6.4c0-10.7,6.2-10.8,6.4-10.8
			c1.2,0,2.2,1,2.2,2.2s-1,2.2-2.2,2.2c-0.7,0.1-2.2,1.6-2.2,6.4c0,4.2-1.5,6.9-3.3,8.6c1.8,1.6,3.3,4.2,3.3,8.6
			c0,4.8,1.5,6.3,2.3,6.4C26.7,57.5,27.6,58.4,27.6,59.6z"/>
	</g>
	<g>
		<path class="st6" d="M44.9,59.6c0,1.2,1,2.2,2.2,2.2c0.3,0,6.4-0.1,6.4-10.7c0-6.3,4.1-6.4,4.2-6.4c1.2,0,2.2-1,2.2-2.2
			c0-0.6-0.2-1.1-0.6-1.5c-0.2-0.2-0.3-0.3-0.5-0.4c-0.3-0.2-0.6-0.2-1-0.2c-0.8,0-4.2-0.5-4.2-6.4c-0.1-10.7-6.3-10.8-6.6-10.8
			c-1.2,0-2.2,1-2.2,2.2s1,2.2,2.2,2.2c0.7,0.1,2.2,1.6,2.2,6.4c0,4.2,1.5,6.9,3.3,8.6c-1.8,1.6-3.3,4.2-3.3,8.6
			c0,4.8-1.5,6.3-2.3,6.4C45.7,57.5,44.9,58.4,44.9,59.6z"/>
	</g>
</g>
</svg>
