<?xml version="1.0" encoding="utf-8"?>
<!-- Generator: Adobe Illustrator 23.0.0, SVG Export Plug-In . SVG Version: 6.00 Build 0)  -->
<!DOCTYPE svg PUBLIC "-//W3C//DTD SVG 1.1//EN" "http://www.w3.org/Graphics/SVG/1.1/DTD/svg11.dtd" [
	<!ENTITY ns_extend "http://ns.adobe.com/Extensibility/1.0/">
	<!ENTITY ns_ai "http://ns.adobe.com/AdobeIllustrator/10.0/">
	<!ENTITY ns_graphs "http://ns.adobe.com/Graphs/1.0/">
	<!ENTITY ns_vars "http://ns.adobe.com/Variables/1.0/">
	<!ENTITY ns_imrep "http://ns.adobe.com/ImageReplacement/1.0/">
	<!ENTITY ns_sfw "http://ns.adobe.com/SaveForWeb/1.0/">
	<!ENTITY ns_custom "http://ns.adobe.com/GenericCustomNamespace/1.0/">
	<!ENTITY ns_adobe_xpath "http://ns.adobe.com/XPath/1.0/">
]>
<svg version="1.1" id="Layer_1" xmlns:x="&ns_extend;" xmlns:i="&ns_ai;" xmlns:graph="&ns_graphs;"
	 xmlns="http://www.w3.org/2000/svg" xmlns:xlink="http://www.w3.org/1999/xlink" x="0px" y="0px" viewBox="0 0 31 31"
	 style="enable-background:new 0 0 31 31;" xml:space="preserve">
<style type="text/css">
	.st0{fill:url(#SVGID_1_);}
	.st1{fill:url(#SVGID_2_);}
</style>
<metadata>
	<sfw  xmlns="&ns_sfw;">
		<slices></slices>
		<sliceSourceBounds  bottomLeftOrigin="true" height="29.9" width="13.4" x="8.8" y="0.5"></sliceSourceBounds>
	</sfw>
</metadata>
<g>
	<g>
		<linearGradient id="SVGID_1_" gradientUnits="userSpaceOnUse" x1="15.5" y1="25.3" x2="15.5" y2="0.6">
			<stop  offset="0" style="stop-color:#006B77"/>
			<stop  offset="1" style="stop-color:#0BD8CE"/>
		</linearGradient>
		<path class="st0" d="M8.8,13.5L11.4,25c0,0.2,0.2,0.3,0.4,0.3h3.7h3.7c0.2,0,0.4-0.1,0.4-0.3l2.6-12c0-0.1,0-0.3-0.1-0.4
			c0-0.1-4.9-6-4.9-11.6c0-0.2-0.2-0.4-0.4-0.4c-0.2,0-0.4,0.2-0.4,0.4v11c0,0,0,0,0,0.1v0.1c0,0,0,0,0,0.1c0,0,0,0.1,0.1,0.1l0,0
			c0,0,0,0,0.1,0.1c0.8,0.4,1.2,1.2,1.2,2s-0.5,1.6-1.2,2c-0.7,0.4-1.5,0.4-2.2,0l0,0c-0.8-0.4-1.2-1.2-1.2-2s0.5-1.6,1.2-2
			c0.1,0,0.2-0.1,0.2-0.2l0,0v-0.1l0,0v-11c0-0.2-0.2-0.4-0.4-0.4S13.8,1,13.8,1.2c0,5.3-4.9,12.2-4.9,12.3
			C8.8,13.3,8.8,13.4,8.8,13.5"/>
	</g>
	<linearGradient id="SVGID_2_" gradientUnits="userSpaceOnUse" x1="15.5" y1="30.5" x2="15.5" y2="26.4">
		<stop  offset="0" style="stop-color:#006B77"/>
		<stop  offset="1" style="stop-color:#0BD8CE"/>
	</linearGradient>
	<path class="st1" d="M20.2,30.5l-0.4-3.7c0-0.2-0.2-0.4-0.4-0.4h-7.8c-0.2,0-0.4,0.2-0.4,0.4l-0.4,3.7H20.2z"/>
</g>
</svg>
