<?xml version="1.0" encoding="utf-8"?>
<!-- Generator: Adobe Illustrator 23.0.0, SVG Export Plug-In . SVG Version: 6.00 Build 0)  -->
<svg version="1.1" id="Layer_1" xmlns="http://www.w3.org/2000/svg" xmlns:xlink="http://www.w3.org/1999/xlink" x="0px" y="0px"
	 viewBox="0 0 4000 240" style="enable-background:new 0 0 4000 240;" xml:space="preserve">
<style type="text/css">
	.st0{fill:none;stroke:#1B9B97;stroke-miterlimit:10;}
	.st1{fill:#1B9B97;}
	.st2{fill-rule:evenodd;clip-rule:evenodd;fill:url(#SVGID_1_);}
	.st3{fill-rule:evenodd;clip-rule:evenodd;fill:url(#SVGID_2_);}
	.st4{fill-rule:evenodd;clip-rule:evenodd;fill:url(#SVGID_3_);}
</style>
<g>
	<path class="st0" d="M1889.8,218.2c-8.4-9.5-15.7-20-21.5-31.2c-5.8-11.3-10.1-23.2-12.9-35.6h-350.1"/>
	<path class="st0" d="M2106.5,21.3c8.4,9.5,15.7,20,21.5,31.2s10.1,23.2,12.9,35.6H2491"/>
</g>
<g>
	<path class="st1" d="M4006,118.8H2107.9l-0.1-2c-1.8-59-51.2-107-110.2-107c-72.6,1-104.3,63.2-104.3,63.2
		c18.5-40.9,59.4-67.3,104.3-67.3c29.7,0,58,11.5,79.6,32.5c21.1,20.5,33.4,47.6,34.8,76.5h1894V118.8z"/>
</g>
<g>
	<path class="st1" d="M4,121.2h1888.1l0.1,2c1.8,59,51.2,107,110.2,107c72.6-1,104.3-63.2,104.3-63.2
		c-18.5,40.9-59.4,67.3-104.3,67.3c-29.7,0-58-11.5-79.6-32.5c-21.1-20.5-33.4-47.6-34.8-76.5H4V121.2z"/>
</g>
<g>
	<linearGradient id="SVGID_1_" gradientUnits="userSpaceOnUse" x1="2014.801" y1="6.8339" x2="1988.3092" y2="232.6908">
		<stop  offset="0" style="stop-color:#00717D"/>
		<stop  offset="0.23" style="stop-color:#83CDCC"/>
		<stop  offset="0.49" style="stop-color:#006B77"/>
		<stop  offset="0.71" style="stop-color:#006B77"/>
		<stop  offset="0.89" style="stop-color:#6DC6C3"/>
		<stop  offset="1" style="stop-color:#030D0F"/>
	</linearGradient>
	<path class="st2" d="M1941.3,66.3c29.8-32.7,80.5-35.1,113.2-5.2c5.7,5.2,10.4,11,14.3,17.2c27.3-11.1,55.7-25.3,88.1-41.3
		c-43.7,23.3-71.1,41-82.1,53.2c5.3,13,7,27.2,5.2,41c13,3.4,27.1,7.2,42.3,11.4c-15.3-3-29.6-5-43.1-6.2
		c-2.8,13.7-9.2,26.9-19.3,38c-29.8,32.7-80.5,35.1-113.2,5.2c-5.8-5.3-10.7-11.3-14.6-17.7c-26.5,11.1-54.1,25.1-85.9,40.8
		c41.6-22.2,68.5-39.4,80.5-51.4c-5.8-14-7.5-29.3-5.1-44.1c-12.4-3.2-25.8-6.8-40.1-10.8c14.5,2.8,28.1,4.8,41.1,6
		C1925.5,89.2,1931.7,76.8,1941.3,66.3L1941.3,66.3z M2069.8,103.1c-20.7-6.2-47.5-3.4-80.4,8.2c18.2,2.3,46.7,8.5,85.5,18.5
		c1.6-11.7,0.4-23.8-3.8-34.9C2069.1,98.1,2068.7,100.9,2069.8,103.1L2069.8,103.1z M2063.8,80.3c-3.2-4.9-7.1-9.4-11.6-13.5
		c-29.3-26.7-74.6-24.6-101.3,4.7c-8.5,9.3-14,20.2-16.7,31.6C1983,105.7,2022.5,96.6,2063.8,80.3L2063.8,80.3z M1932.9,110
		c-1.2,8.9-0.8,18,1.4,26.8c20.6,5.8,47.6,2.1,80-9.3C1996.7,125.2,1969.6,119.3,1932.9,110L1932.9,110z M1942.9,157.4
		c3.4,5.6,7.7,10.7,12.7,15.4c29.3,26.7,74.6,24.6,101.3-4.7c8.6-9.5,14.2-20.6,16.9-32.2C2023.9,132.4,1984.3,141.1,1942.9,157.4z"
		/>
	<linearGradient id="SVGID_2_" gradientUnits="userSpaceOnUse" x1="2014.801" y1="6.8339" x2="1988.3092" y2="232.6908">
		<stop  offset="0" style="stop-color:#00717D"/>
		<stop  offset="0.23" style="stop-color:#83CDCC"/>
		<stop  offset="0.49" style="stop-color:#006B77"/>
		<stop  offset="0.71" style="stop-color:#006B77"/>
		<stop  offset="0.89" style="stop-color:#6DC6C3"/>
		<stop  offset="1" style="stop-color:#030D0F"/>
	</linearGradient>
	<path class="st3" d="M1941.3,66.3c29.8-32.7,80.5-35.1,113.2-5.2c5.7,5.2,10.4,11,14.3,17.2c27.3-11.1,55.7-25.3,88.1-41.3
		c-43.7,23.3-71.1,41-82.1,53.2c5.3,13,7,27.2,5.2,41c13,3.4,27.1,7.2,42.3,11.4c-15.3-3-29.6-5-43.1-6.2
		c-2.8,13.7-9.2,26.9-19.3,38c-29.8,32.7-80.5,35.1-113.2,5.2c-5.8-5.3-10.7-11.3-14.6-17.7c-26.5,11.1-54.1,25.1-85.9,40.8
		c41.6-22.2,68.5-39.4,80.5-51.4c-5.8-14-7.5-29.3-5.1-44.1c-12.4-3.2-25.8-6.8-40.1-10.8c14.5,2.8,28.1,4.8,41.1,6
		C1925.5,89.2,1931.7,76.8,1941.3,66.3L1941.3,66.3z M2069.8,103.1c-20.7-6.2-47.5-3.4-80.4,8.2c18.2,2.3,46.7,8.5,85.5,18.5
		c1.6-11.7,0.4-23.8-3.8-34.9C2069.1,98.1,2068.7,100.9,2069.8,103.1L2069.8,103.1z M2063.8,80.3c-3.2-4.9-7.1-9.4-11.6-13.5
		c-29.3-26.7-74.6-24.6-101.3,4.7c-8.5,9.3-14,20.2-16.7,31.6C1983,105.7,2022.5,96.6,2063.8,80.3L2063.8,80.3z M1932.9,110
		c-1.2,8.9-0.8,18,1.4,26.8c20.6,5.8,47.6,2.1,80-9.3C1996.7,125.2,1969.6,119.3,1932.9,110L1932.9,110z M1942.9,157.4
		c3.4,5.6,7.7,10.7,12.7,15.4c29.3,26.7,74.6,24.6,101.3-4.7c8.6-9.5,14.2-20.6,16.9-32.2C2023.9,132.4,1984.3,141.1,1942.9,157.4z"
		/>
	<linearGradient id="SVGID_3_" gradientUnits="userSpaceOnUse" x1="2014.801" y1="6.8339" x2="1988.3092" y2="232.6908">
		<stop  offset="0" style="stop-color:#00717D"/>
		<stop  offset="0.23" style="stop-color:#83CDCC"/>
		<stop  offset="0.49" style="stop-color:#006B77"/>
		<stop  offset="0.71" style="stop-color:#006B77"/>
		<stop  offset="0.89" style="stop-color:#6DC6C3"/>
		<stop  offset="1" style="stop-color:#030D0F"/>
	</linearGradient>
	<path class="st4" d="M1941.3,66.3c29.8-32.7,80.5-35.1,113.2-5.2c5.7,5.2,10.4,11,14.3,17.2c27.3-11.1,55.7-25.3,88.1-41.3
		c-43.7,23.3-71.1,41-82.1,53.2c5.3,13,7,27.2,5.2,41c13,3.4,27.1,7.2,42.3,11.4c-15.3-3-29.6-5-43.1-6.2
		c-2.8,13.7-9.2,26.9-19.3,38c-29.8,32.7-80.5,35.1-113.2,5.2c-5.8-5.3-10.7-11.3-14.6-17.7c-26.5,11.1-54.1,25.1-85.9,40.8
		c41.6-22.2,68.5-39.4,80.5-51.4c-5.8-14-7.5-29.3-5.1-44.1c-12.4-3.2-25.8-6.8-40.1-10.8c14.5,2.8,28.1,4.8,41.1,6
		C1925.5,89.2,1931.7,76.8,1941.3,66.3L1941.3,66.3z M2069.8,103.1c-20.7-6.2-47.5-3.4-80.4,8.2c18.2,2.3,46.7,8.5,85.5,18.5
		c1.6-11.7,0.4-23.8-3.8-34.9C2069.1,98.1,2068.7,100.9,2069.8,103.1L2069.8,103.1z M2063.8,80.3c-3.2-4.9-7.1-9.4-11.6-13.5
		c-29.3-26.7-74.6-24.6-101.3,4.7c-8.5,9.3-14,20.2-16.7,31.6C1983,105.7,2022.5,96.6,2063.8,80.3L2063.8,80.3z M1932.9,110
		c-1.2,8.9-0.8,18,1.4,26.8c20.6,5.8,47.6,2.1,80-9.3C1996.7,125.2,1969.6,119.3,1932.9,110L1932.9,110z M1942.9,157.4
		c3.4,5.6,7.7,10.7,12.7,15.4c29.3,26.7,74.6,24.6,101.3-4.7c8.6-9.5,14.2-20.6,16.9-32.2C2023.9,132.4,1984.3,141.1,1942.9,157.4z"
		/>
</g>
</svg>
