<?xml version="1.0" encoding="utf-8"?>
<!-- Generator: Adobe Illustrator 23.0.0, SVG Export Plug-In . SVG Version: 6.00 Build 0)  -->
<!DOCTYPE svg PUBLIC "-//W3C//DTD SVG 1.1//EN" "http://www.w3.org/Graphics/SVG/1.1/DTD/svg11.dtd" [
	<!ENTITY ns_extend "http://ns.adobe.com/Extensibility/1.0/">
	<!ENTITY ns_ai "http://ns.adobe.com/AdobeIllustrator/10.0/">
	<!ENTITY ns_graphs "http://ns.adobe.com/Graphs/1.0/">
	<!ENTITY ns_vars "http://ns.adobe.com/Variables/1.0/">
	<!ENTITY ns_imrep "http://ns.adobe.com/ImageReplacement/1.0/">
	<!ENTITY ns_sfw "http://ns.adobe.com/SaveForWeb/1.0/">
	<!ENTITY ns_custom "http://ns.adobe.com/GenericCustomNamespace/1.0/">
	<!ENTITY ns_adobe_xpath "http://ns.adobe.com/XPath/1.0/">
]>
<svg version="1.1" id="Layer_1" xmlns:x="&ns_extend;" xmlns:i="&ns_ai;" xmlns:graph="&ns_graphs;"
	 xmlns="http://www.w3.org/2000/svg" xmlns:xlink="http://www.w3.org/1999/xlink" x="0px" y="0px" viewBox="0 0 308 308"
	 style="enable-background:new 0 0 308 308;" xml:space="preserve">
<style type="text/css">
	.st0{fill:none;}
	.st1{fill:#CD8351;}
	.st2{fill:#E7A274;}
	.st3{fill:url(#SVGID_1_);}
	.st4{fill:#FFC18C;}
	.st5{fill:url(#SVGID_2_);}
	.st6{fill:#FFFFFF;}
	.st7{fill:#26170B;}
	.st8{fill:url(#SVGID_3_);}
	.st9{fill:url(#SVGID_4_);}
	.st10{fill:#302215;}
	.st11{fill:#168177;}
	.st12{stroke:#000000;stroke-miterlimit:10;}
	.st13{fill:url(#New_Pattern_Swatch_6);}
	.st14{fill:#FFAC6B;}
	.st15{fill:#FBC18A;}
	.st16{fill:url(#SVGID_5_);}
	.st17{opacity:0.35;fill:#DCB89D;}
	.st18{fill:#161616;}
	.st19{fill:#141312;}
	.st20{fill:#302D2B;}
	.st21{opacity:0.72;fill:url(#SVGID_6_);}
</style>
<metadata>
	<sfw  xmlns="&ns_sfw;">
		<slices></slices>
		<sliceSourceBounds  bottomLeftOrigin="true" height="308" width="308" x="1346" y="-1153.2"></sliceSourceBounds>
	</sfw>
</metadata>
<pattern  x="-1346" y="-845.2" width="48.8" height="48.8" patternUnits="userSpaceOnUse" id="New_Pattern_Swatch_6" viewBox="0 -48.8 48.8 48.8" style="overflow:visible;">
	<g>
		<rect y="-48.8" class="st0" width="48.8" height="48.8"/>
		<rect y="-48.8" class="st1" width="48.8" height="48.8"/>
	</g>
</pattern>
<pattern  x="-1346" y="-845.2" width="82" height="82" patternUnits="userSpaceOnUse" id="New_Pattern_Swatch_7" viewBox="0 -82 82 82" style="overflow:visible;">
	<g>
		<rect y="-82" class="st0" width="82" height="82"/>
		<rect y="-82" class="st2" width="82" height="82"/>
	</g>
</pattern>
<g>
	<radialGradient id="SVGID_1_" cx="154.0004" cy="154.0005" r="136.725" gradientUnits="userSpaceOnUse">
		<stop  offset="0" style="stop-color:#20B9B4"/>
		<stop  offset="0.4094" style="stop-color:#147073"/>
		<stop  offset="1" style="stop-color:#030B19"/>
	</radialGradient>
	<path class="st3" d="M290.7,154c0,32.1-11.1,61.6-29.6,85c-24.6,31-62.3,51-104.8,51.7c-0.8,0-1.6,0-2.4,0c-1.3,0-2.6,0-3.9-0.1
		c-38.9-1.1-73.7-18.4-97.9-45.5C30.5,221,17.3,189,17.3,154C17.3,78.5,78.5,17.3,154,17.3S290.7,78.5,290.7,154z"/>
	<path class="st2" d="M195.9,132.5c0,0,1.8-4.3,2-4.3s3.4-0.3,4.8,2.7c-0.5,2.8-0.8,1.8-0.8,1.8v2.5l-0.6,3.9c0,0-0.5,3.7-0.5,3.7
		s-0.3,5.3-0.3,5.3l-1.2,7.8l-0.5,1.5c0,0,0.1,4-0.6,5.4c-0.8,1.4-2,3.6-4.8,5.1c-2.8,1.4-3.6-2-3.6-2v-17.7L195.9,132.5z"/>
	<path class="st4" d="M118.5,173.6c0,0,4.9,27.2-1.3,32s16.6,14.9,16.6,14.9l13.4,11.2l5.2,3.2l9.5-6.7l12.5-12.5l17.4-21.3
		c0,0-4.5-17.1-3.3-23.3C189.7,164.8,118.5,173.6,118.5,173.6z"/>
	<pattern  id="SVGID_2_" xlink:href="#New_Pattern_Swatch_7" patternTransform="matrix(1 0 0 1 3 27)">
	</pattern>
	<path class="st5" d="M118.5,174.9c0,0,2.3,13.2,1.7,17.2c2.5,3.9,21.1,21.9,23.8,20.9c0,0,10.4,2.7,15-1
		c4.6-3.7,11.3-6.1,16.8-13.3c4.4-6.1,4.6-4.4,13.3-16.1c0,0-1.4-8,0.1-13.8C190.8,163.1,118.5,174.9,118.5,174.9z"/>
	<path class="st2" d="M107.9,132.5c0,0-1.8-4.3-2-4.3s-3.4-0.3-4.8,2.7c0.5,2.8,0.8,1.8,0.8,1.8v2.5l0.6,3.9c0,0,0.5,3.7,0.5,3.7
		s0.3,5.3,0.3,5.3l1.2,7.8l0.5,1.5c0,0-0.1,4,0.6,5.4c0.8,1.4,2,3.6,4.8,5.1c2.8,1.4,3.6-2,3.6-2v-17.7L107.9,132.5z"/>
	<path class="st1" d="M119.5,178c0,0,12.5,27.7,31.6,27c19.1-0.7,35.6-24.5,37-28.1c1.4-3.6,0-6.6,0-6.6L119.5,178z"/>
	<path class="st4" d="M194.1,147.5c-0.1,1.8-0.3,4.1-0.7,7.2c-0.1,1-0.3,2.2-0.6,3.4c0,0,0,0.1,0,0.1c-1.9,8.8-7.3,21.9-16.4,31.5
		c-2.6,2.8-5.5,5.3-8.7,7.3c-0.5,0.3-0.9,0.6-1.4,0.9c-0.2,0.1-0.4,0.2-0.6,0.3c-1.4,0.8-2.8,1.4-4.3,2c-2.1,0.8-4.3,1.4-6.6,1.8
		c-0.8,0.1-1.6,0.2-2.3,0.3c-0.7-0.1-1.5-0.2-2.3-0.3c-2.3-0.4-4.5-1-6.6-1.8c-2.4-0.9-4.6-2.1-6.7-3.5c-3.1-2-5.9-4.5-8.4-7.2
		c-9-9.6-14.3-22.6-16.2-31.4c-0.3-1.3-0.5-2.5-0.6-3.6c-1.7-13.3,0-13.3,0-13.3v-24.9l1.3-25.4l16-8.2l18.9-4.1l3.8,5.5l1.1,5.4
		l1.1-5.4l3.8-5.5l18.9,4.1l16,8.2l1.3,25.4v24.9C193.4,141.4,194.4,141.4,194.1,147.5z"/>
	<path class="st2" d="M178.8,89v25.5c0,0,5.7,12.3,11.4,13.7s5.6-3.9,5.6-3.9V96.8L178.8,89z"/>
	<path class="st2" d="M147.1,143c-1.5-0.2,3.9-12.4-14.1-14.1c-19.4-1.8-16.4,4.2-16.4,4.2l4.7,4.5c0,0,2.2-4.9,9.9-5.1
		c7.2-0.2,14.5,7.1,14.5,15.7c0,8.5,1.1-2.6,1.1-2.6L147.1,143z"/>
	<path class="st2" d="M124.7,89v25.5c0,0-5.7,12.3-11.4,13.7c-5.7,1.4-5.6-3.9-5.6-3.9V96.8L124.7,89z"/>
	<path class="st6" d="M125.2,137.5c0.6,1,3.5,4.8,12,2.5c1.9-1.4,2.3-0.7,3.6-1.2l0.5-1.1c0,0-4.5-4.3-6.4-4.3
		c-1.8-0.3-3.3-1.6-6.4,0C128.5,133.4,124.1,135.7,125.2,137.5z"/>
	<path class="st7" d="M109.5,143.6l-1.6-7.3l-1.6-6.1l-2.5-2.2v-7.8l-1.8-7.9c0,0-0.9-3.9-0.9-4.4c0-0.3-0.6-4.7-0.6-9.5
		c0-2.3,0-4.9,0-7c0-6.5,6.1-13.1,6.1-13.1l5.6-6.7c0,0,4.8-4.4,5.1-4.7c0.3-0.3,4.7-1.7,5.2-1.8s7.5-5,7.5-5l7.8-2.8
		c0,0,5.3-1.5,6.1-1.5s10.4,0,10.4,0l12.7,2.8l10.4,4.3c0,0,9.1,6.6,9.5,7.1c0.5,0.5,9,8.3,9.2,9.1s5.3,10.7,5.3,10.7l1.7,8.9
		l0.5,8.6c0,0-1.4,8.4-1.4,8.7c0,0.3-3.1,7.3-3.1,7.3s-1.4,6.1-1.4,6.6c0,0.6,0,4.7,0,5.4s-2.3,5.4-2.3,5.4l-1.5,3.8l-2.2-17.5
		c0,0,0.2-5.7-0.1-5.8c-0.3-0.1-5.7-6.6-5.7-6.6l3.3-13.6c0,0-1.6-3.6-1.9-3.8s-7.8-1.4-8.2-1.5s-13.5-3.4-15.5-4.8
		c-2-1.4-5.7-0.1-5.7-0.1l-4.8,2.9l-2.6-0.8l-0.9-1.4l-3.1,1.7c0,0,0,0,0,0c0,0.2-0.4,3.2-3.7,1.9c-3.4-1.4-6.3-5-9.1-4.2
		c-2.7,0.8-11.8,2.6-13,4.2c-1.2,1.6-6,4.8-6.5,6.3c-0.5,1.5,0.7,8.9,0.7,8.9l0.2,4.9l-3.6,4.9l-0.7,24.6L109.5,143.6z"/>
	<linearGradient id="SVGID_3_" gradientUnits="userSpaceOnUse" x1="152.1595" y1="137.9014" x2="152.1595" y2="169.0471">
		<stop  offset="0" style="stop-color:#FBC18A"/>
		<stop  offset="1" style="stop-color:#E7A274"/>
	</linearGradient>
	<path class="st8" d="M163.7,166.7c-1.3,1.4-3.1,1.5-3.1,1.5s-2.4,0.1-2.4-1.5c-2.2,2.4-4.8,2.4-4.8,2.4l-1.3-0.2l0-0.5l0,0.5
		l-1.3,0.2c0,0-2.6,0-4.8-2.4c0,1.6-2.4,1.5-2.4,1.5s-1.8-0.1-3.1-1.5c-1.3-1.4-0.8-3.9-0.8-3.9s2.1-5.6,2.9-5.7
		c0.8,0,3.9-11.5,3.9-11.5l2.1-7.6l3.2-0.1l0.2,0l0.2,0l3.2,0.1l2.1,7.6c0,0,3.1,11.4,3.9,11.5c0.8,0,2.9,5.7,2.9,5.7
		S164.9,165.3,163.7,166.7z"/>
	<linearGradient id="SVGID_4_" gradientUnits="userSpaceOnUse" x1="151.8957" y1="137.8944" x2="151.8957" y2="137.9084">
		<stop  offset="0" style="stop-color:#F9BE8E"/>
		<stop  offset="1" style="stop-color:#F1A66A"/>
	</linearGradient>
	<polygon class="st9" points="152,137.9 152,137.9 151.8,137.9 	"/>
	<path class="st10" d="M117.6,132.5c0,0,16.4-6.1,25.3,1.1c3.7-0.6,2.7-3.5,2.7-3.5l-3-3.6v0.9c0,0-7.5,0.1-13.6-3.1
		c-6.7,0.8-12.8,5.1-12.8,5.1S113.4,132.6,117.6,132.5z"/>
	<ellipse class="st11" cx="133.1" cy="136.1" rx="3.5" ry="3.4"/>
	<g>
		<path d="M142.1,138.7c-1.3-1.2-2.6-2.2-4-3.2c-1.4-0.9-2.9-1.6-4.4-2c-1.5-0.3-3.1-0.2-4.6,0.3c-1.5,0.5-2.9,1.5-4.4,2.5
			c0.9-1.5,2.2-2.9,3.8-3.7c1.6-0.9,3.7-1.2,5.5-0.8c1.9,0.4,3.5,1.4,4.9,2.6C140.3,135.7,141.4,137.1,142.1,138.7z"/>
	</g>
	<circle class="st12" cx="133.2" cy="136" r="1.1"/>
	<circle class="st6" cx="133.4" cy="134.6" r="0.9"/>
	<path class="st1" d="M166,179.3l-3.3,0.1c0,0-1.5-0.6-3.4-0.7c-2-0.1-6.9,1.1-6.9,1.1l-0.5-0.2l-0.5,0.2c0,0-4.9-1.2-6.9-1.1
		c-2,0.1-3.4,0.7-3.4,0.7l-3.3-0.1l3.7-1.1l4.5-1.7c0,0,2.9-1.1,4.5,0c0.7,0.5,1.1,0.7,1.3,0.8c0.2-0.1,0.6-0.3,1.3-0.8
		c1.6-1.1,4.5,0,4.5,0l4.5,1.7L166,179.3z"/>
	<g>
		<path class="st13" d="M140.4,180.7c0.9,0.6,1.8,1,2.8,1.3c0.9,0.3,1.9,0.5,2.8,0.6c0.9,0.1,1.9,0.2,2.8,0.2c0.5,0,1,0,1.4,0
			c0.5,0,1-0.1,1.4-0.1l0.1,0l0.1,0c1,0,2.1,0,3.2,0c1.1,0,2.1-0.1,3.2-0.1c1.1-0.1,2.1-0.2,3.1-0.4c1-0.2,2-0.6,2.9-1.4
			c-0.1,1.3-1,2.4-2,3.1c-1,0.8-2.2,1.3-3.4,1.7c-1.2,0.4-2.4,0.6-3.6,0.8c-1.2,0.1-2.4,0.2-3.6,0.1h0.2c-0.6,0-1.1,0-1.7,0
			c-0.6,0-1.1-0.1-1.7-0.2c-1.1-0.2-2.2-0.5-3.3-0.9c-1.1-0.5-2.1-1-2.9-1.8C141.5,182.7,140.7,181.8,140.4,180.7z"/>
	</g>
	<path class="st1" d="M103,133c0,0,2.2,1.2,2.4,2.2c0.2,1,0.6,3.1,0.6,3.1l-0.7,1.3l-0.8,4.2l-0.7-3.8l-0.1-3.1l-0.7-1.7V133z"/>
	<polygon class="st1" points="107.6,145.6 107.6,149.5 108.4,152.9 109.1,153.5 108.7,151.4 108.7,148.2 109.1,146.1 109.1,144.2 	
		"/>
	<polygon class="st1" points="105.6,151.7 107.6,154.3 107.6,158 	"/>
	<path class="st14" d="M128.4,189.6c-9-9.6-14.3-22.6-16.2-31.4c1.3,0.3,3,1.1,4.1,2.8C116.2,161,127.5,176.9,128.4,189.6z"/>
	<path class="st1" d="M200.8,133c0,0-2.2,1.2-2.4,2.2c-0.2,1-0.6,3.1-0.6,3.1l0.7,1.3l0.8,4.2l0.7-3.8l0.1-3.1l0.7-1.7V133z"/>
	<polygon class="st1" points="196.2,145.6 196.2,149.5 195.4,152.9 194.7,153.5 195.1,151.4 195.1,148.2 194.7,146.1 194.7,144.2 	
		"/>
	<polygon class="st1" points="198.2,151.7 196.2,154.3 196.2,158 	"/>
	<ellipse class="st15" cx="152.5" cy="162" rx="3.9" ry="4.7"/>
	<path class="st14" d="M192.8,158.2c-1.9,8.8-7.3,21.9-16.4,31.5c0.8-12.7,12.2-28.7,12.2-28.7C189.8,159.2,191.5,158.5,192.8,158.2
		z"/>
	<linearGradient id="SVGID_5_" gradientUnits="userSpaceOnUse" x1="151.7245" y1="137.8944" x2="151.7245" y2="137.9084">
		<stop  offset="0" style="stop-color:#F9BE8E"/>
		<stop  offset="1" style="stop-color:#F1A66A"/>
	</linearGradient>
	<polygon class="st16" points="151.8,137.9 151.6,137.9 151.6,137.9 	"/>
	<path class="st1" d="M151.9,168.9c0,0-4.3-0.9-6-2.8c-1.6-1.8-2.5,0.8-2.5,0.8s-1.6,0.8-2.6-0.9c0.7,1.8,2.3,2.6,3.9,2.1
		C149,168,149.7,169.6,151.9,168.9z"/>
	<path class="st1" d="M151.5,168.9c0,0,4.3-0.9,6-2.8c1.6-1.8,2.5,0.8,2.5,0.8s1.6,0.8,2.6-0.9c-0.7,1.8-2.3,2.6-3.9,2.1
		C154.4,168,153.8,169.6,151.5,168.9z"/>
	<path class="st2" d="M157.6,143c1.5-0.2-3.9-12.4,14.1-14.1c19.4-1.8,16.4,4.2,16.4,4.2l-4.7,4.5c0,0-2.2-4.9-9.9-5.1
		c-7.2-0.2-14.5,7.1-14.5,15.7s-1.1-2.6-1.1-2.6L157.6,143z"/>
	<path class="st17" d="M110.9,147.5c0.1,1.8,0.3,4.1,0.7,7.2c0.1,1,0.3,2.2,0.6,3.4c0,0,0,0.1,0,0.1c1.9,8.8,7.3,21.9,16.4,31.5
		c2.6,2.8,5.5,5.3,8.7,7.3c0.5,0.3,0.9,0.6,1.4,0.9c1-0.2,2.1-0.5,3.1-0.9c0.5-0.1,1-0.3,1.2-0.8c0.3-0.7-0.4-1.4-0.9-2
		c-1-1-1.7-2.3-2.3-3.5c-0.5-1-1.1-2.1-1.6-3.1c-0.9-1.7-1.9-3.5-2.1-5.5c-0.1-0.7-0.1-1.4-0.5-1.9c-0.4-0.6-1.3-0.8-1.7-0.3
		c-0.1,2.3,0.2,4.6,0.8,6.8c-1.9-2-3.7-4-5.6-6c-0.7-0.7-1.3-1.5-1.9-2.3c-1.3-2.1-1.6-4.6-2.4-7c-1.6-4.5-5-8.1-8-11.8
		c-3.1-3.8-4.7-7.4-5.8-12.1C111,147.4,111,147.4,110.9,147.5z"/>
	<path class="st6" d="M179.5,137.4c-0.6,1-3.5,4.8-11.9,2.6c-1.9-1.3-2.3-0.7-3.6-1.2l-0.5-1.1c0,0,4.4-4.4,6.3-4.3
		c1.8-0.3,3.3-1.7,6.4,0C176.2,133.4,180.6,135.6,179.5,137.4z"/>
	<path class="st10" d="M187.1,132.5c0,0-16.4-6.1-25.3,1.1c-3.7-0.6-2.7-3.5-2.7-3.5l3-3.6v0.9c0,0,7.5,0.1,13.6-3.1
		c6.7,0.8,12.8,5.1,12.8,5.1S191.3,132.6,187.1,132.5z"/>
	<ellipse class="st11" cx="171.6" cy="136.1" rx="3.5" ry="3.4"/>
	<path class="st18" d="M261.1,239c-24.6,31-62.3,51-104.8,51.7c-0.8,0-1.6,0-2.4,0c-1.3,0-2.6,0-3.9-0.1
		c-38.9-1.1-73.7-18.4-97.9-45.5c20.9-17.6,51-29.3,60-32.5c1.7-0.6,2.6-0.9,2.6-0.9l8.7,3.2l16.7,6.2l0.6,0.2l0-0.5V220l0,0
		l3.3,1.6l2.8,1.4l5,8.3l3.2-5.6l4.3-7.9l1.5,1.3l4,3.6l0.3,0.8l0.5-2.4l1.1-5.2l10.6-3.9l20-7.4c0,0,0.6,0.2,1.8,0.6
		C207,208,239.5,220.2,261.1,239z"/>
	<g>
		<path d="M162.6,138.7c0.8-1.6,1.9-3,3.2-4.2c1.4-1.2,3-2.1,4.9-2.6c1.9-0.4,3.9-0.1,5.5,0.8c1.6,0.9,2.9,2.2,3.8,3.7
			c-1.4-1-2.9-2-4.4-2.5c-1.5-0.5-3.1-0.7-4.6-0.3c-1.5,0.3-3,1.1-4.4,2C165.2,136.5,163.9,137.6,162.6,138.7z"/>
	</g>
	<polygon class="st19" points="169.4,228.1 166.1,231.1 159.9,220 163.5,216.8 	"/>
	<circle class="st12" cx="171.4" cy="136" r="1.1"/>
	<path class="st17" d="M194.1,147.5c-0.1,1.8-0.3,4.1-0.7,7.2c-0.1,1-0.3,2.2-0.6,3.4c0,0,0,0.1,0,0.1c-1.9,8.8-7.3,21.9-16.4,31.5
		c-2.6,2.8-5.5,5.3-8.7,7.3c-0.5,0.3-0.9,0.6-1.4,0.9c-1-0.2-2.1-0.5-3.1-0.9c-0.5-0.1-1-0.3-1.2-0.8c-0.3-0.7,0.4-1.4,0.9-2
		c1-1,1.7-2.3,2.3-3.5c0.5-1,1.1-2.1,1.6-3.1c0.9-1.7,1.9-3.5,2.1-5.5c0.1-0.7,0.1-1.4,0.5-1.9c0.4-0.6,1.3-0.8,1.7-0.3
		c0.1,2.3-0.2,4.6-0.8,6.8c1.9-2,3.7-4,5.6-6c0.7-0.7,1.3-1.5,1.9-2.3c1.3-2.1,1.6-4.6,2.4-7c1.6-4.5,5-8.1,8-11.8
		c3.1-3.8,4.7-7.4,5.8-12.1C194,147.4,194.1,147.4,194.1,147.5z"/>
	<circle class="st6" cx="171.3" cy="134.6" r="0.9"/>
	<path class="st10" d="M167.7,197.4c-2,1.3-4.1,2.4-6.4,3.2c-2.1,0.8-4.3,1.4-6.6,1.8c-0.8,0.1-1.6,0.2-2.3,0.3
		c-0.7-0.1-1.5-0.2-2.3-0.3c-2.3-0.4-4.5-1-6.6-1.8c-2.4-0.9-4.6-2.1-6.7-3.5c0.6-0.5,1.3-0.8,1.9-1.1c0.3-0.1,0.5-0.2,0.8-0.4
		c0.4-0.2,0.7-0.4,1-0.6c0.6-0.3,1.2-0.5,1.8-0.6c1-0.2,1.9-0.2,2.9-0.2c0.3,0,0.7,0,1-0.1c0.2-0.1,0.3-0.3,0.4-0.4
		c0.3-0.5,0.6-0.9,0.8-1.4c0.3-0.6,0.6-1.4,0.3-2c-0.2-0.5-0.8-0.9-0.9-1.5c-0.1-0.3,0-0.7,0.1-1c0.2-0.8,0.5-1.7,0.9-2.4
		c1.1-0.1,2.3-0.3,3.4-0.2c0,0.6,2,0.6,2,0c1.1-0.1,2.3,0.1,3.4,0.2c0.4,0.8,0.7,1.6,0.9,2.4c0.1,0.3,0.2,0.7,0.1,1
		c-0.1,0.6-0.7,1-0.9,1.5c-0.3,0.7,0,1.4,0.3,2c0.2,0.5,0.5,1,0.8,1.4c0.1,0.2,0.2,0.3,0.4,0.4c0.3,0.2,0.6,0.1,1,0.1
		c1-0.1,1.9,0,2.9,0.2c0.6,0.1,1.2,0.3,1.8,0.6c0.4,0.2,0.7,0.4,1,0.6c0.3,0.1,0.5,0.2,0.8,0.4C166.3,196.3,167.1,196.7,167.7,197.4
		C167.7,197.3,167.7,197.3,167.7,197.4z"/>
	<path class="st10" d="M103.6,122.2c-0.3-3.3-3.6-5.6-4.8-8.7c-0.8-1.9-0.8-4.1-2.1-5.7c-0.7-0.8-1.9-1.7-1.4-2.7
		c1.3,3.8,6.7,5.3,7.3,9.2c0-1.7,0-3.4,0.1-5.2c0-0.3,0-0.7-0.2-1c-0.2-0.3-0.6-0.4-0.9-0.5c-1.5-0.6-2.4-2.1-3.2-3.5
		c-1.2-2.1-2.4-4.1-3.5-6.2c-0.9-1.5-1.8-3.3-1.3-5c-0.4,5.5,4.1,10.9,9.7,11.6c2.3,3.2,3.3,6.6,3.5,10.6
		C106.7,117.4,105,120.5,103.6,122.2z"/>
	<polygon class="st19" points="135.4,230.4 138.7,233.5 144.9,222.3 141.3,219.2 	"/>
	<path class="st10" d="M172.6,180.7c0,0.2-0.1,0.5-0.3,0.7c-0.2,0.2-0.5,0.2-0.7,0.1c-0.2-0.1-0.3-0.2-0.4-0.4
		c-0.7-0.8-1.7-1.3-2.6-1.7c-0.6-0.2-1.1-0.5-1.7-0.7c-0.6-0.3-1.2-0.5-1.8-0.8c-1.2-0.5-2.5-0.9-3.8-1.3c-0.5-0.1-1-0.3-1.5-0.5
		c-0.5-0.3-1-0.7-1.6-1c-1.5-0.9-3.4-1-5-0.3c-0.2,0.1-0.5,0.2-0.7,0.3c-0.2,0.1-0.4,0.2-0.6,0.2c-0.2,0-0.4-0.1-0.6-0.2
		c-0.2-0.1-0.5-0.2-0.7-0.3c-1.6-0.7-3.5-0.6-5,0.3c-0.5,0.3-1,0.7-1.6,1c-0.5,0.2-1,0.4-1.5,0.5c-1.3,0.4-2.5,0.8-3.8,1.3
		c-0.6,0.2-1.2,0.5-1.8,0.8c-0.6,0.2-1.1,0.5-1.7,0.7c-1,0.4-2,0.9-2.6,1.7c-0.1,0.1-0.2,0.3-0.4,0.4c-0.2,0.1-0.5,0-0.7-0.1
		c-0.2-0.2-0.3-0.4-0.3-0.7c-0.1-0.3,0-0.7,0-1c0.1-1.4,0.2-2.9,0.9-4.2c1-1.7,3-2.6,5-3.1c0.6-0.2,1.2-0.4,1.8-0.6
		c0.6-0.3,1.2-0.6,1.8-0.9c1.3-0.7,2.8-1.2,4.2-1.6c0.7-0.2,1.4-0.4,2.1-0.3c0.8,0,1.6,0.3,2.4,0.1c0.7-0.2,1.3-0.4,2.1-0.4
		c0.1,0,0.2,0,0.3,0c0.1,0,0.2,0,0.3,0c0.8-0.1,1.4,0.2,2.1,0.4c0.8,0.2,1.6-0.1,2.4-0.1c0.7,0,1.4,0.1,2.1,0.3
		c1.4,0.4,2.9,0.9,4.2,1.6c0.6,0.3,1.2,0.6,1.8,0.9c0.6,0.2,1.2,0.4,1.8,0.6c1.9,0.6,3.9,1.4,5,3.1c0.7,1.2,0.8,2.7,0.9,4.2
		C172.6,180,172.6,180.3,172.6,180.7z"/>
	<polygon class="st20" points="118,200.6 145.7,217.4 152.2,230.4 157.1,215.5 191.5,193.9 199.4,205.1 167.4,231.3 160.4,218.8 
		152.5,234.2 144.3,222.1 137.1,233.2 112.1,212.7 	"/>
	<path class="st20" d="M154,290.7c-1.3,0-2.6,0-3.9-0.1v-50.5l2.1-5.5l0.2-0.6l0.1-0.2l1.6-2.8l0,0.1l0.1,2.6l2.2,57
		C155.6,290.7,154.8,290.7,154,290.7z"/>
</g>
<radialGradient id="SVGID_6_" cx="139.7925" cy="269.6066" r="282.3092" fx="138.3894" fy="269.7845" gradientTransform="matrix(0.9503 0.3112 -0.3112 0.9503 44.9408 -38.1845)" gradientUnits="userSpaceOnUse">
	<stop  offset="0.7436" style="stop-color:#FFFFFF;stop-opacity:0"/>
	<stop  offset="1" style="stop-color:#FFFFFF"/>
</radialGradient>
<path class="st21" d="M291.4,84.4C252.9,8.6,160.3-21.8,84.4,16.7C8.6,55.1-21.8,147.7,16.6,223.6c38.4,75.9,131.1,106.2,206.9,67.8
	C299.4,252.9,329.8,160.3,291.4,84.4z M253.4,253.4c-54.9,54.9-143.9,54.9-198.8,0c-54.9-54.9-54.9-143.9,0-198.8
	c54.9-54.9,143.9-54.9,198.8,0C308.3,109.5,308.3,198.5,253.4,253.4z"/>
</svg>
