<?xml version="1.0" encoding="utf-8"?>
<!-- Generator: Adobe Illustrator 23.0.0, SVG Export Plug-In . SVG Version: 6.00 Build 0)  -->
<!DOCTYPE svg PUBLIC "-//W3C//DTD SVG 1.1//EN" "http://www.w3.org/Graphics/SVG/1.1/DTD/svg11.dtd" [
	<!ENTITY ns_extend "http://ns.adobe.com/Extensibility/1.0/">
	<!ENTITY ns_ai "http://ns.adobe.com/AdobeIllustrator/10.0/">
	<!ENTITY ns_graphs "http://ns.adobe.com/Graphs/1.0/">
	<!ENTITY ns_vars "http://ns.adobe.com/Variables/1.0/">
	<!ENTITY ns_imrep "http://ns.adobe.com/ImageReplacement/1.0/">
	<!ENTITY ns_sfw "http://ns.adobe.com/SaveForWeb/1.0/">
	<!ENTITY ns_custom "http://ns.adobe.com/GenericCustomNamespace/1.0/">
	<!ENTITY ns_adobe_xpath "http://ns.adobe.com/XPath/1.0/">
]>
<svg version="1.1" id="Layer_1" xmlns:x="&ns_extend;" xmlns:i="&ns_ai;" xmlns:graph="&ns_graphs;"
	 xmlns="http://www.w3.org/2000/svg" xmlns:xlink="http://www.w3.org/1999/xlink" x="0px" y="0px" viewBox="0 0 30 30"
	 style="enable-background:new 0 0 30 30;" xml:space="preserve">
<style type="text/css">
	.st0{fill:url(#SVGID_1_);}
	.st1{fill:url(#SVGID_2_);}
</style>
<metadata>
	<sfw  xmlns="&ns_sfw;">
		<slices></slices>
		<sliceSourceBounds  bottomLeftOrigin="true" height="22.2" width="28.1" x="1" y="3.9"></sliceSourceBounds>
	</sfw>
</metadata>
<g>
	<g>
		<linearGradient id="SVGID_1_" gradientUnits="userSpaceOnUse" x1="15" y1="26.1" x2="15" y2="8.4">
			<stop  offset="0" style="stop-color:#006B77"/>
			<stop  offset="1" style="stop-color:#0BD8CE"/>
		</linearGradient>
		<path class="st0" d="M15,8.4L5,16.6c0,0,0,0,0,0.1c0,0,0,0,0,0.1V25c0,0.3,0.1,0.6,0.3,0.8c0.2,0.2,0.5,0.3,0.8,0.3h6.7v-6.7h4.4
			v6.7h6.7c0.3,0,0.6-0.1,0.8-0.3c0.2-0.2,0.3-0.5,0.3-0.8v-8.3v-0.1L15,8.4z"/>
		<linearGradient id="SVGID_2_" gradientUnits="userSpaceOnUse" x1="15.05" y1="17" x2="15.05" y2="3.9">
			<stop  offset="0" style="stop-color:#006B77"/>
			<stop  offset="1" style="stop-color:#0BD8CE"/>
		</linearGradient>
		<path class="st1" d="M28.8,14.7L25,11.6V4.5c0-0.2-0.1-0.3-0.2-0.4s-0.2-0.2-0.4-0.2h-3.3c-0.2,0-0.3,0.1-0.4,0.2
			c-0.1,0.1-0.2,0.2-0.2,0.4v3.4l-4.2-3.5C15.9,4,15.5,3.9,15,3.9s-0.9,0.2-1.3,0.5L1.2,14.7C1.1,14.8,1,14.9,1,15.1
			c0,0.2,0,0.3,0.1,0.4l1.1,1.3C2.3,16.9,2.4,17,2.6,17c0.1,0,0.3,0,0.4-0.1l12-10l12,10c0.1,0.1,0.2,0.1,0.4,0.1h0.1
			c0.2,0,0.3-0.1,0.4-0.2l1.1-1.3c0.1-0.1,0.1-0.3,0.1-0.4C29,14.9,28.9,14.8,28.8,14.7z"/>
	</g>
</g>
</svg>
