<?xml version="1.0" encoding="utf-8"?>
<!-- Generator: Adobe Illustrator 23.0.0, SVG Export Plug-In . SVG Version: 6.00 Build 0)  -->
<svg version="1.1" id="Layer_1" xmlns="http://www.w3.org/2000/svg" xmlns:xlink="http://www.w3.org/1999/xlink" x="0px" y="0px"
	 viewBox="0 0 215 85" style="enable-background:new 0 0 215 85;" xml:space="preserve">
<style type="text/css">
	.st0{fill:url(#SVGID_1_);}
	.st1{fill:url(#SVGID_2_);}
	.st2{fill:url(#SVGID_3_);}
	.st3{fill:#FFFFFF;}
	.st4{fill:url(#SVGID_4_);}
	.st5{fill:url(#SVGID_5_);}
	.st6{fill:url(#SVGID_6_);}
	.st7{fill:url(#SVGID_7_);}
</style>
<g>
	<linearGradient id="SVGID_1_" gradientUnits="userSpaceOnUse" x1="27.1438" y1="43.3912" x2="213.7142" y2="43.3912">
		<stop  offset="0" style="stop-color:#006B77"/>
		<stop  offset="1" style="stop-color:#0BD8CE"/>
	</linearGradient>
	<path class="st0" d="M186.2,70.9H54.7c-15.2,0-27.5-12.4-27.5-27.5s12.4-27.5,27.5-27.5h131.5c15.2,0,27.5,12.4,27.5,27.5
		S201.4,70.9,186.2,70.9z M54.7,21.9c-11.9,0-21.5,9.7-21.5,21.5s9.7,21.5,21.5,21.5h131.5c11.9,0,21.5-9.7,21.5-21.5
		s-9.7-21.5-21.5-21.5H54.7z"/>
</g>
<linearGradient id="SVGID_2_" gradientUnits="userSpaceOnUse" x1="36.236" y1="4.35" x2="36.236" y2="83.45" gradientTransform="matrix(1 0 0 -1 0 86.4)">
	<stop  offset="0" style="stop-color:#006B77"/>
	<stop  offset="1" style="stop-color:#0BD8CE"/>
</linearGradient>
<path class="st1" d="M67.9,13.7v57.5c0,6-4.8,10.8-10.8,10.8H15.4c-6,0-10.8-4.8-10.8-10.8V23.1L25,2.9h32.1
	C63,2.9,67.9,7.8,67.9,13.7z"/>
<linearGradient id="SVGID_3_" gradientUnits="userSpaceOnUse" x1="14.536" y1="73.4001" x2="21.7198" y2="66.2164" gradientTransform="matrix(1 0 0 -1 0 86.4)">
	<stop  offset="0" style="stop-color:#006B77"/>
	<stop  offset="1" style="stop-color:#0BD8CE"/>
</linearGradient>
<path class="st2" d="M25,2.9v9.5c0,6-4.8,10.8-10.8,10.8H4.3L4.6,23L25,2.9z"/>
<g>
	<g>
		<g>
			<path class="st3" d="M25.1,56.2c-0.3,0-0.7-0.2-1-0.5L11.9,42.8l12.2-12.9c0.7-0.7,1.7-0.6,2.2,0.2c0.6,0.8,0.5,2-0.2,2.7
				l-9.5,9.9l9.4,10c0.7,0.7,0.7,1.9,0.2,2.7C25.9,56,25.5,56.2,25.1,56.2z"/>
		</g>
		<g>
			<path class="st3" d="M47.1,56.2c-0.4,0-0.8-0.2-1.2-0.6c-0.6-0.8-0.5-2,0.2-2.7l9.4-10l-9.4-10c-0.7-0.7-0.7-1.9-0.2-2.7
				c0.6-0.8,1.6-0.9,2.2-0.2l12.1,13L48.1,55.7C47.8,56,47.4,56.2,47.1,56.2z"/>
		</g>
	</g>
	<g>
		<path class="st3" d="M27.3,66.8c-0.2,0-0.4-0.1-0.7-0.2c-0.7-0.4-1.2-1.6-0.7-2.5L42.5,20c0.3-0.9,1.3-1.4,2.1-0.9
			c0.7,0.4,1.2,1.6,0.7,2.5L28.8,65.7C28.5,66.3,27.9,66.8,27.3,66.8z"/>
	</g>
</g>
<g>
	
		<linearGradient id="SVGID_4_" gradientUnits="userSpaceOnUse" x1="95.8945" y1="28.5841" x2="95.8945" y2="58.5841" gradientTransform="matrix(1 0 0 -1 0 86.4)">
		<stop  offset="0" style="stop-color:#006B77"/>
		<stop  offset="1" style="stop-color:#0BD8CE"/>
	</linearGradient>
	<path class="st4" d="M108.9,27.8v30h-7.3V45.3H90.1v12.5h-7.2v-30h7.2v11.7h11.4V27.8H108.9z"/>
	
		<linearGradient id="SVGID_5_" gradientUnits="userSpaceOnUse" x1="123.7457" y1="28.5841" x2="123.7457" y2="58.5841" gradientTransform="matrix(1 0 0 -1 0 86.4)">
		<stop  offset="0" style="stop-color:#006B77"/>
		<stop  offset="1" style="stop-color:#0BD8CE"/>
	</linearGradient>
	<path class="st5" d="M135.5,27.8v5.8h-8.2v24.2H120V33.6h-8v-5.8H135.5z"/>
	
		<linearGradient id="SVGID_6_" gradientUnits="userSpaceOnUse" x1="155.431" y1="28.5841" x2="155.431" y2="58.3312" gradientTransform="matrix(1 0 0 -1 0 86.4)">
		<stop  offset="0" style="stop-color:#006B77"/>
		<stop  offset="1" style="stop-color:#0BD8CE"/>
	</linearGradient>
	<path class="st6" d="M172.2,28.1v29.7h-7.2V39.2l-6.5,18.6h-6.2l-6.6-18.7v18.7h-7.2V28.1h8.8l8.2,20.8l7.9-20.8H172.2z"/>
	
		<linearGradient id="SVGID_7_" gradientUnits="userSpaceOnUse" x1="185.6417" y1="28.5841" x2="185.6417" y2="58.5841" gradientTransform="matrix(1 0 0 -1 0 86.4)">
		<stop  offset="0" style="stop-color:#006B77"/>
		<stop  offset="1" style="stop-color:#0BD8CE"/>
	</linearGradient>
	<path class="st7" d="M184.5,52.3h9.6v5.6h-17v-30h7.2L184.5,52.3L184.5,52.3z"/>
</g>
</svg>
