<?xml version="1.0" encoding="utf-8"?>
<!-- Generator: Adobe Illustrator 23.0.0, SVG Export Plug-In . SVG Version: 6.00 Build 0)  -->
<svg version="1.1" id="Layer_1" xmlns="http://www.w3.org/2000/svg" xmlns:xlink="http://www.w3.org/1999/xlink" x="0px" y="0px"
	 viewBox="0 0 215 85" style="enable-background:new 0 0 215 85;" xml:space="preserve">
<style type="text/css">
	.st0{fill:url(#SVGID_1_);}
	.st1{fill:url(#SVGID_2_);}
	.st2{fill:none;stroke:url(#SVGID_3_);stroke-width:6;stroke-miterlimit:10;}
	.st3{fill:url(#SVGID_4_);}
	.st4{fill:url(#SVGID_5_);}
	.st5{fill:#FFFFFF;}
</style>
<g>
	
		<linearGradient id="SVGID_1_" gradientUnits="userSpaceOnUse" x1="122.1372" y1="28.0427" x2="122.1372" y2="57.3344" gradientTransform="matrix(1 0 0 -1 0 86.4)">
		<stop  offset="0" style="stop-color:#006B77"/>
		<stop  offset="1" style="stop-color:#0BD8CE"/>
	</linearGradient>
	<path class="st0" d="M132,29v19.9c0,3-0.8,5.4-2.5,7c-1.7,1.7-3.9,2.5-6.8,2.5c-3.1,0-5.7-0.9-7.6-2.6c-1.8-1.8-2.8-4.4-2.8-7.7h7
		c0,2.8,1.1,4.1,3,4.1c1.8,0,2.6-1.1,2.6-3.1V29H132z"/>
	
		<linearGradient id="SVGID_2_" gradientUnits="userSpaceOnUse" x1="146.8358" y1="28.0427" x2="146.8358" y2="57.9911" gradientTransform="matrix(1 0 0 -1 0 86.4)">
		<stop  offset="0" style="stop-color:#006B77"/>
		<stop  offset="1" style="stop-color:#0BD8CE"/>
	</linearGradient>
	<path class="st1" d="M156.3,54.1c-0.8,1.3-2,2.4-3.5,3c-1.5,0.7-3.5,1.2-5.5,1.2c-3.3,0-5.9-0.8-8-2.4c-2.1-1.6-3.3-3.8-3.5-6.7
		h7.5c0.2,1.1,0.5,2,1.2,2.6c0.7,0.7,1.6,0.9,2.6,0.9c0.9,0,1.6-0.2,2.1-0.8c0.6-0.6,0.8-1.2,0.8-2c0-0.8-0.2-1.3-0.7-1.8
		c-0.4-0.5-1.1-0.9-1.8-1.2c-0.7-0.2-1.7-0.7-3-1.2c-1.8-0.7-3.3-1.2-4.4-1.8c-1.2-0.5-2.1-1.5-3-2.6c-0.8-1.2-1.3-2.6-1.3-4.6
		c0-1.7,0.4-3.1,1.3-4.4c0.9-1.3,2.1-2.2,3.7-2.9s3.3-1.1,5.3-1.1c3.3,0,5.8,0.8,7.7,2.4c1.8,1.6,3,3.7,3.3,6.3h-7.6
		c-0.2-0.9-0.5-1.7-1.1-2.2c-0.5-0.5-1.3-0.8-2.2-0.8c-0.8,0-1.5,0.2-2,0.7c-0.5,0.4-0.8,1.1-0.8,2c0,0.7,0.2,1.3,0.7,1.7
		c0.4,0.4,1.1,0.9,1.7,1.2c0.7,0.2,1.7,0.7,3,1.2c1.8,0.7,3.5,1.3,4.6,1.8c1.2,0.7,2.2,1.6,3,2.6c0.8,1.2,1.3,2.8,1.3,4.6
		C157.5,51.4,157.2,52.8,156.3,54.1z"/>
</g>
<linearGradient id="SVGID_3_" gradientUnits="userSpaceOnUse" x1="27.1437" y1="43.3914" x2="213.7139" y2="43.3914">
	<stop  offset="0" style="stop-color:#006B77"/>
	<stop  offset="1" style="stop-color:#0BD8CE"/>
</linearGradient>
<path class="st2" d="M186.2,67.9H54.7c-13.6,0-24.5-11-24.5-24.5v0c0-13.6,11-24.5,24.5-24.5h131.5c13.6,0,24.5,11,24.5,24.5v0
	C210.7,56.9,199.7,67.9,186.2,67.9z"/>
<linearGradient id="SVGID_4_" gradientUnits="userSpaceOnUse" x1="36.236" y1="4.35" x2="36.236" y2="83.45" gradientTransform="matrix(1 0 0 -1 0 86.4)">
	<stop  offset="0" style="stop-color:#006B77"/>
	<stop  offset="1" style="stop-color:#0BD8CE"/>
</linearGradient>
<path class="st3" d="M67.9,13.7v57.5c0,6-4.8,10.8-10.8,10.8H15.4c-6,0-10.8-4.8-10.8-10.8V23.1L25,2.9h32.1
	C63,2.9,67.9,7.8,67.9,13.7z"/>
<linearGradient id="SVGID_5_" gradientUnits="userSpaceOnUse" x1="14.536" y1="73.4001" x2="21.7198" y2="66.2164" gradientTransform="matrix(1 0 0 -1 0 86.4)">
	<stop  offset="0" style="stop-color:#006B77"/>
	<stop  offset="1" style="stop-color:#0BD8CE"/>
</linearGradient>
<path class="st4" d="M25,2.9v9.5c0,6-4.8,10.8-10.8,10.8H4.3L4.6,23L25,2.9z"/>
<g>
	<g>
		<circle class="st5" cx="26.9" cy="42.4" r="2.9"/>
		<circle class="st5" cx="36.5" cy="42.4" r="2.9"/>
		<circle class="st5" cx="45.6" cy="42.4" r="2.9"/>
	</g>
	<g>
		<g>
			<path class="st5" d="M23.9,57.7c0,1-0.9,1.9-2,1.9c-0.3,0-5.7-0.1-5.7-9.5c0-5.7-3.7-5.7-3.9-5.7c-1,0-1.9-0.9-1.9-1.9
				c0-0.5,0.2-1,0.5-1.4c0.2-0.2,0.3-0.3,0.5-0.3c0.3-0.2,0.5-0.2,0.9-0.2c0.7,0,3.9-0.4,3.9-5.7c0-9.4,5.5-9.5,5.7-9.5
				c1,0,1.9,0.9,1.9,1.9s-0.9,1.9-1.9,1.9c-0.6-0.1-1.9,1.2-1.9,5.6c0,3.9-1.3,6.2-2.8,7.6c1.5,1.5,2.8,3.9,2.8,7.6
				c0,4.3,1.3,5.7,2.1,5.7C23.1,55.8,23.9,56.6,23.9,57.7z"/>
		</g>
		<g>
			<path class="st5" d="M48.6,57.7c0,1,0.9,1.9,2,1.9c0.3,0,5.7-0.1,5.7-9.5c0-5.7,3.7-5.7,3.9-5.7c1,0,1.9-0.9,1.9-1.9
				c0-0.5-0.2-1-0.5-1.4c-0.2-0.2-0.3-0.3-0.5-0.3c-0.3-0.2-0.5-0.2-0.9-0.2c-0.7,0-3.9-0.4-3.9-5.7c0-9.4-5.5-9.5-5.7-9.5
				c-1,0-1.9,0.9-1.9,1.9s0.9,1.9,1.9,1.9c0.6,0.1,1.9,1.4,1.9,5.7c0,3.9,1.3,6.2,2.8,7.6c-1.5,1.5-2.8,3.9-2.8,7.6
				c0,4.3-1.3,5.7-2.1,5.7C49.3,55.8,48.6,56.6,48.6,57.7z"/>
		</g>
	</g>
</g>
</svg>
