<?xml version="1.0" encoding="utf-8"?>
<!-- Generator: Adobe Illustrator 23.0.0, SVG Export Plug-In . SVG Version: 6.00 Build 0)  -->
<!DOCTYPE svg PUBLIC "-//W3C//DTD SVG 1.1//EN" "http://www.w3.org/Graphics/SVG/1.1/DTD/svg11.dtd" [
	<!ENTITY ns_extend "http://ns.adobe.com/Extensibility/1.0/">
	<!ENTITY ns_ai "http://ns.adobe.com/AdobeIllustrator/10.0/">
	<!ENTITY ns_graphs "http://ns.adobe.com/Graphs/1.0/">
	<!ENTITY ns_vars "http://ns.adobe.com/Variables/1.0/">
	<!ENTITY ns_imrep "http://ns.adobe.com/ImageReplacement/1.0/">
	<!ENTITY ns_sfw "http://ns.adobe.com/SaveForWeb/1.0/">
	<!ENTITY ns_custom "http://ns.adobe.com/GenericCustomNamespace/1.0/">
	<!ENTITY ns_adobe_xpath "http://ns.adobe.com/XPath/1.0/">
]>
<svg version="1.1" id="Layer_1" xmlns:x="&ns_extend;" xmlns:i="&ns_ai;" xmlns:graph="&ns_graphs;"
	 xmlns="http://www.w3.org/2000/svg" xmlns:xlink="http://www.w3.org/1999/xlink" x="0px" y="0px" viewBox="0 0 31 31"
	 style="enable-background:new 0 0 31 31;" xml:space="preserve">
<style type="text/css">
	.st0{fill:url(#SVGID_1_);}
	.st1{fill:url(#SVGID_2_);}
	.st2{fill:url(#SVGID_3_);}
	.st3{fill:url(#SVGID_4_);}
	.st4{fill:url(#SVGID_5_);}
	.st5{fill:url(#SVGID_6_);}
	.st6{fill:url(#SVGID_7_);}
	.st7{fill:url(#SVGID_8_);}
	.st8{fill:url(#SVGID_9_);}
</style>
<metadata>
	<sfw  xmlns="&ns_sfw;">
		<slices></slices>
		<sliceSourceBounds  bottomLeftOrigin="true" height="30" width="30" x="0.5" y="0.5"></sliceSourceBounds>
	</sfw>
</metadata>
<g>
	<linearGradient id="SVGID_1_" gradientUnits="userSpaceOnUse" x1="9.65" y1="11" x2="9.65" y2="4.3">
		<stop  offset="0" style="stop-color:#006B77"/>
		<stop  offset="1" style="stop-color:#0BD8CE"/>
	</linearGradient>
	<path class="st0" d="M9.5,4.3c0,0-3.8,1.4-6,6.7l12.3-2.3L9.5,4.3z"/>
	<linearGradient id="SVGID_2_" gradientUnits="userSpaceOnUse" x1="6.7367" y1="20.8" x2="6.7367" y2="10.4">
		<stop  offset="0" style="stop-color:#006B77"/>
		<stop  offset="1" style="stop-color:#0BD8CE"/>
	</linearGradient>
	<path class="st1" d="M3.3,11.8c0,0-1.7,3.7,0.5,9l7-10.4L3.3,11.8z"/>
	<linearGradient id="SVGID_3_" gradientUnits="userSpaceOnUse" x1="7.65" y1="27.2" x2="7.65" y2="15">
		<stop  offset="0" style="stop-color:#006B77"/>
		<stop  offset="1" style="stop-color:#0BD8CE"/>
	</linearGradient>
	<path class="st2" d="M4.3,21.2c0,0,1.4,3.8,6.7,6L8.7,15L4.3,21.2z"/>
	<linearGradient id="SVGID_4_" gradientUnits="userSpaceOnUse" x1="15.55" y1="28.0267" x2="15.55" y2="19.9">
		<stop  offset="0" style="stop-color:#006B77"/>
		<stop  offset="1" style="stop-color:#0BD8CE"/>
	</linearGradient>
	<path class="st3" d="M11.7,27.4c0,0,3.7,1.7,9-0.5l-10.3-7L11.7,27.4z"/>
	<linearGradient id="SVGID_5_" gradientUnits="userSpaceOnUse" x1="21.25" y1="26.6" x2="21.25" y2="19.9">
		<stop  offset="0" style="stop-color:#006B77"/>
		<stop  offset="1" style="stop-color:#0BD8CE"/>
	</linearGradient>
	<path class="st4" d="M21.4,26.6c0,0,3.8-1.4,6-6.7l-12.3,2.3L21.4,26.6z"/>
	<linearGradient id="SVGID_6_" gradientUnits="userSpaceOnUse" x1="24.1633" y1="20.5" x2="24.1633" y2="10.2">
		<stop  offset="0" style="stop-color:#006B77"/>
		<stop  offset="1" style="stop-color:#0BD8CE"/>
	</linearGradient>
	<path class="st5" d="M27.1,10.2l-7,10.3l7.5-1.4C27.6,19.2,29.3,15.5,27.1,10.2"/>
	<linearGradient id="SVGID_7_" gradientUnits="userSpaceOnUse" x1="23.25" y1="16" x2="23.25" y2="3.7">
		<stop  offset="0" style="stop-color:#006B77"/>
		<stop  offset="1" style="stop-color:#0BD8CE"/>
	</linearGradient>
	<path class="st6" d="M26.6,9.7c0,0-1.4-3.8-6.7-6L22.3,16L26.6,9.7z"/>
	<linearGradient id="SVGID_8_" gradientUnits="userSpaceOnUse" x1="15.35" y1="11" x2="15.35" y2="2.8733">
		<stop  offset="0" style="stop-color:#006B77"/>
		<stop  offset="1" style="stop-color:#0BD8CE"/>
	</linearGradient>
	<path class="st7" d="M19.2,3.5c0,0-3.7-1.7-9,0.5l10.3,7L19.2,3.5z"/>
	<linearGradient id="SVGID_9_" gradientUnits="userSpaceOnUse" x1="15.5" y1="30.5" x2="15.5" y2="0.5">
		<stop  offset="0" style="stop-color:#006B77"/>
		<stop  offset="1" style="stop-color:#0BD8CE"/>
	</linearGradient>
	<path class="st8" d="M15.5,0.5c-8.3,0-15,6.7-15,15s6.7,15,15,15s15-6.7,15-15S23.8,0.5,15.5,0.5 M15.5,29.3
		c-7.6,0-13.8-6.2-13.8-13.8S7.9,1.7,15.5,1.7s13.8,6.2,13.8,13.8S23.1,29.3,15.5,29.3"/>
</g>
</svg>
