<?xml version="1.0" encoding="utf-8"?>
<!-- Generator: Adobe Illustrator 23.0.0, SVG Export Plug-In . SVG Version: 6.00 Build 0)  -->
<!DOCTYPE svg PUBLIC "-//W3C//DTD SVG 1.1//EN" "http://www.w3.org/Graphics/SVG/1.1/DTD/svg11.dtd" [
	<!ENTITY ns_extend "http://ns.adobe.com/Extensibility/1.0/">
	<!ENTITY ns_ai "http://ns.adobe.com/AdobeIllustrator/10.0/">
	<!ENTITY ns_graphs "http://ns.adobe.com/Graphs/1.0/">
	<!ENTITY ns_vars "http://ns.adobe.com/Variables/1.0/">
	<!ENTITY ns_imrep "http://ns.adobe.com/ImageReplacement/1.0/">
	<!ENTITY ns_sfw "http://ns.adobe.com/SaveForWeb/1.0/">
	<!ENTITY ns_custom "http://ns.adobe.com/GenericCustomNamespace/1.0/">
	<!ENTITY ns_adobe_xpath "http://ns.adobe.com/XPath/1.0/">
]>
<svg version="1.1" id="Layer_1" xmlns:x="&ns_extend;" xmlns:i="&ns_ai;" xmlns:graph="&ns_graphs;"
	 xmlns="http://www.w3.org/2000/svg" xmlns:xlink="http://www.w3.org/1999/xlink" x="0px" y="0px" viewBox="0 0 30 30"
	 style="enable-background:new 0 0 30 30;" xml:space="preserve">
<style type="text/css">
	.st0{fill:url(#SVGID_1_);}
	.st1{fill:url(#SVGID_2_);}
	.st2{fill:url(#SVGID_3_);}
</style>
<metadata>
	<sfw  xmlns="&ns_sfw;">
		<slices></slices>
		<sliceSourceBounds  bottomLeftOrigin="true" height="27" width="27.1" x="1.3" y="1.5"></sliceSourceBounds>
	</sfw>
</metadata>
<g>
	<linearGradient id="SVGID_1_" gradientUnits="userSpaceOnUse" x1="9.35" y1="17.7" x2="9.35" y2="1.5">
		<stop  offset="0" style="stop-color:#006B77"/>
		<stop  offset="1" style="stop-color:#0BD8CE"/>
	</linearGradient>
	<path class="st0" d="M3.2,11.4c0.1,0.5,0.3,1,0.6,1.4L3,13.7c-0.2,0.3-0.2,0.7,0.1,1l1.2,1.2c0.3,0.3,0.7,0.3,1,0.1l0.9-0.7
		c0.5,0.3,1,0.5,1.5,0.6L7.8,17c0,0.4,0.4,0.7,0.7,0.7h1.7c0.4,0,0.7-0.3,0.7-0.7l0.1-1.1c0.6-0.1,1.1-0.4,1.6-0.6l0.9,0.7
		c0.3,0.2,0.7,0.2,1-0.1l1.2-1.2c0.3-0.3,0.3-0.7,0.1-1l-0.7-0.9c0.3-0.5,0.5-1,0.6-1.5l1-0.1c0.4,0,0.7-0.4,0.7-0.7V8.7
		c0-0.4-0.3-0.7-0.7-0.7l-1-0.1c-0.1-0.5-0.4-1-0.6-1.5l0.6-0.8c0.2-0.3,0.2-0.7-0.1-1l-1.2-1.2c-0.3-0.3-0.7-0.3-1-0.1l-0.8,0.6
		c-0.5-0.3-1-0.5-1.6-0.7l-0.1-1c0-0.4-0.4-0.7-0.7-0.7H8.6c-0.4,0-0.7,0.3-0.7,0.7l-0.1,1C7.2,3.3,6.6,3.5,6.1,3.9L5.3,3.2
		C5,3,4.6,3,4.3,3.3L3.1,4.5C2.8,4.8,2.8,5.2,3,5.5l0.7,0.9c-0.3,0.5-0.5,1-0.6,1.5L2,8C1.6,8,1.3,8.4,1.3,8.7v1.7
		c0,0.4,0.3,0.7,0.7,0.7L3.2,11.4z M9.5,6.6c1.6,0,2.9,1.3,2.9,2.9s-1.3,2.9-2.9,2.9s-2.9-1.3-2.9-2.9S7.9,6.6,9.5,6.6"/>
	<linearGradient id="SVGID_2_" gradientUnits="userSpaceOnUse" x1="21.75" y1="23.2" x2="21.75" y2="9.8">
		<stop  offset="0" style="stop-color:#006B77"/>
		<stop  offset="1" style="stop-color:#0BD8CE"/>
	</linearGradient>
	<path class="st1" d="M26.8,11.8l-1-0.8c-0.3-0.2-0.7-0.2-1,0l-0.5,0.5c-0.4-0.2-0.9-0.4-1.4-0.4l-0.1-0.7C22.7,10,22.4,9.8,22,9.8
		l-1.2,0.1c-0.4,0-0.7,0.3-0.7,0.7v0.7c-0.5,0.2-0.9,0.4-1.3,0.7l-0.6-0.4c-0.3-0.2-0.7-0.1-1,0.1l-0.8,0.9c-0.2,0.3-0.2,0.7,0,1
		l0.5,0.6c-0.2,0.4-0.3,0.9-0.4,1.3l-0.8,0.2c-0.4,0.1-0.6,0.4-0.6,0.8l0.1,1.2c0,0.4,0.3,0.7,0.7,0.7h0.8c0.1,0.4,0.3,0.8,0.6,1.1
		l-0.5,0.7c-0.2,0.3-0.1,0.7,0.1,1l0.9,0.8c0.3,0.2,0.7,0.2,1,0l0.6-0.6c0.4,0.2,0.8,0.3,1.2,0.4l0.2,0.8c0.1,0.4,0.4,0.6,0.8,0.6
		l1.2-0.1c0.4,0,0.7-0.3,0.7-0.7v-0.8c0.4-0.2,0.9-0.4,1.2-0.6l0.7,0.4c0.3,0.2,0.7,0.1,1-0.1l0.8-0.9c0.2-0.3,0.2-0.7,0-1l-0.5-0.6
		c0.2-0.4,0.3-0.9,0.4-1.3l0.7-0.2c0.4-0.1,0.6-0.4,0.6-0.8l-0.1-1.2c0-0.4-0.3-0.7-0.7-0.7h-0.7c-0.2-0.4-0.4-0.8-0.6-1.2l0.4-0.6
		C27.1,12.4,27,12,26.8,11.8 M22.2,18.7c-1.3,0.1-2.4-0.9-2.6-2.2c-0.1-1.3,0.9-2.4,2.2-2.6c1.3-0.1,2.4,0.9,2.6,2.2
		C24.5,17.5,23.5,18.6,22.2,18.7"/>
	<linearGradient id="SVGID_3_" gradientUnits="userSpaceOnUse" x1="12.1" y1="28.5" x2="12.1" y2="17.6">
		<stop  offset="0" style="stop-color:#006B77"/>
		<stop  offset="1" style="stop-color:#0BD8CE"/>
	</linearGradient>
	<path class="st2" d="M7.4,22c-0.4,0-0.7,0.3-0.7,0.7v0.7c0,0.4,0.3,0.7,0.6,0.7l0.5,0.1c0.1,0.3,0.2,0.6,0.4,0.9l-0.3,0.4
		c-0.2,0.3-0.2,0.7,0,1L8.4,27c0.3,0.3,0.7,0.3,1,0.1l0.4-0.3c0.3,0.2,0.6,0.3,1,0.4l0.1,0.6c0,0.4,0.3,0.7,0.7,0.7h0.7
		c0.4,0,0.7-0.3,0.7-0.6l0.1-0.5c0.4-0.1,0.7-0.2,1.1-0.4l0.4,0.3c0.3,0.2,0.7,0.2,1,0l0.5-0.5c0.3-0.3,0.3-0.7,0.1-1l-0.3-0.4
		c0.2-0.3,0.3-0.7,0.4-1h0.5c0.4,0,0.7-0.3,0.7-0.7V23c0-0.4-0.3-0.7-0.6-0.7L16.4,22c-0.1-0.4-0.2-0.7-0.4-1l0.3-0.4
		c0.2-0.3,0.2-0.7,0-1l-0.5-0.5c-0.3-0.3-0.7-0.3-1-0.1l-0.4,0.3c-0.3-0.2-0.7-0.4-1.1-0.5v-0.5c0-0.4-0.3-0.7-0.7-0.7h-0.7
		c-0.4,0-0.7,0.3-0.7,0.6L11,18.8c-0.4,0.1-0.8,0.3-1.1,0.5L9.5,19c-0.3-0.2-0.7-0.2-1,0L8,19.5c-0.3,0.3-0.3,0.7-0.1,1l0.3,0.4
		c-0.2,0.3-0.3,0.7-0.4,1L7.4,22z M12.1,21.1c1.1,0,1.9,0.9,1.9,1.9c0,1.1-0.9,1.9-1.9,1.9c-1.1,0-1.9-0.9-1.9-1.9
		C10.2,22,11.1,21.1,12.1,21.1"/>
</g>
</svg>
