<?xml version="1.0" encoding="utf-8"?>
<!-- Generator: Adobe Illustrator 23.0.0, SVG Export Plug-In . SVG Version: 6.00 Build 0)  -->
<!DOCTYPE svg PUBLIC "-//W3C//DTD SVG 1.1//EN" "http://www.w3.org/Graphics/SVG/1.1/DTD/svg11.dtd" [
	<!ENTITY ns_extend "http://ns.adobe.com/Extensibility/1.0/">
	<!ENTITY ns_ai "http://ns.adobe.com/AdobeIllustrator/10.0/">
	<!ENTITY ns_graphs "http://ns.adobe.com/Graphs/1.0/">
	<!ENTITY ns_vars "http://ns.adobe.com/Variables/1.0/">
	<!ENTITY ns_imrep "http://ns.adobe.com/ImageReplacement/1.0/">
	<!ENTITY ns_sfw "http://ns.adobe.com/SaveForWeb/1.0/">
	<!ENTITY ns_custom "http://ns.adobe.com/GenericCustomNamespace/1.0/">
	<!ENTITY ns_adobe_xpath "http://ns.adobe.com/XPath/1.0/">
]>
<svg version="1.1" id="Layer_1" xmlns:x="&ns_extend;" xmlns:i="&ns_ai;" xmlns:graph="&ns_graphs;"
	 xmlns="http://www.w3.org/2000/svg" xmlns:xlink="http://www.w3.org/1999/xlink" x="0px" y="0px" viewBox="0 0 139.8 81.3"
	 style="enable-background:new 0 0 139.8 81.3;" xml:space="preserve">
<style type="text/css">
	.st0{fill:#FFFFFF;}
	.st1{fill-rule:evenodd;clip-rule:evenodd;fill:url(#SVGID_1_);}
	.st2{fill-rule:evenodd;clip-rule:evenodd;fill:url(#SVGID_2_);}
	.st3{fill-rule:evenodd;clip-rule:evenodd;fill:url(#SVGID_3_);}
</style>
<metadata><?xpacket begin="﻿" id="W5M0MpCehiHzreSzNTczkc9d"?>
<x:xmpmeta xmlns:x="adobe:ns:meta/" x:xmptk="Adobe XMP Core 5.6-c145 79.163499, 2018/08/13-16:40:22        ">
   <rdf:RDF xmlns:rdf="http://www.w3.org/1999/02/22-rdf-syntax-ns#">
      <rdf:Description rdf:about=""
            xmlns:xmp="http://ns.adobe.com/xap/1.0/"
            xmlns:xmpGImg="http://ns.adobe.com/xap/1.0/g/img/"
            xmlns:xmpTPg="http://ns.adobe.com/xap/1.0/t/pg/"
            xmlns:stDim="http://ns.adobe.com/xap/1.0/sType/Dimensions#"
            xmlns:xmpG="http://ns.adobe.com/xap/1.0/g/"
            xmlns:dc="http://purl.org/dc/elements/1.1/">
         <xmp:CreatorTool>Adobe Illustrator CC 23.0 (Windows)</xmp:CreatorTool>
         <xmp:CreateDate>2019-03-18T20:16:37+01:00</xmp:CreateDate>
         <xmp:Thumbnails>
            <rdf:Alt>
               <rdf:li rdf:parseType="Resource">
                  <xmpGImg:width>256</xmpGImg:width>
                  <xmpGImg:height>148</xmpGImg:height>
                  <xmpGImg:format>JPEG</xmpGImg:format>
                  <xmpGImg:image>/9j/4AAQSkZJRgABAgEASABIAAD/7QAsUGhvdG9zaG9wIDMuMAA4QklNA+0AAAAAABAASAAAAAEA&#xA;AQBIAAAAAQAB/+4ADkFkb2JlAGTAAAAAAf/bAIQABgQEBAUEBgUFBgkGBQYJCwgGBggLDAoKCwoK&#xA;DBAMDAwMDAwQDA4PEA8ODBMTFBQTExwbGxscHx8fHx8fHx8fHwEHBwcNDA0YEBAYGhURFRofHx8f&#xA;Hx8fHx8fHx8fHx8fHx8fHx8fHx8fHx8fHx8fHx8fHx8fHx8fHx8fHx8fHx8f/8AAEQgAlAEAAwER&#xA;AAIRAQMRAf/EAaIAAAAHAQEBAQEAAAAAAAAAAAQFAwIGAQAHCAkKCwEAAgIDAQEBAQEAAAAAAAAA&#xA;AQACAwQFBgcICQoLEAACAQMDAgQCBgcDBAIGAnMBAgMRBAAFIRIxQVEGE2EicYEUMpGhBxWxQiPB&#xA;UtHhMxZi8CRygvElQzRTkqKyY3PCNUQnk6OzNhdUZHTD0uIIJoMJChgZhJRFRqS0VtNVKBry4/PE&#xA;1OT0ZXWFlaW1xdXl9WZ2hpamtsbW5vY3R1dnd4eXp7fH1+f3OEhYaHiImKi4yNjo+Ck5SVlpeYmZ&#xA;qbnJ2en5KjpKWmp6ipqqusra6voRAAICAQIDBQUEBQYECAMDbQEAAhEDBCESMUEFURNhIgZxgZEy&#xA;obHwFMHR4SNCFVJicvEzJDRDghaSUyWiY7LCB3PSNeJEgxdUkwgJChgZJjZFGidkdFU38qOzwygp&#xA;0+PzhJSktMTU5PRldYWVpbXF1eX1RlZmdoaWprbG1ub2R1dnd4eXp7fH1+f3OEhYaHiImKi4yNjo&#xA;+DlJWWl5iZmpucnZ6fkqOkpaanqKmqq6ytrq+v/aAAwDAQACEQMRAD8A9U4q7FXYq7FXYq7FXYq7&#xA;FXYq7FXYq7FXYq7FXYq7FXYq7FXYq7FXYq7FXYq7FXYq7FXYq7FXYq7FXYq7FXYq7FXYq7FXYq7F&#xA;XYq7FXYq7FXYq7FVOe4t7eIyzypDEvWSRgqj6TthAtEpACyaYzqX5i6HbVW2WS8kptwHBK+BZ6H7&#xA;lOWxwkuBk7Sxx5epj11+aOss9bWygij/AJZS8h+9TH+rLBgHe4cu1J9APx8krl/MLzezVW4SMfyr&#xA;ElP+GBOT8GLQe0c3f9jofzH83RNV5YphUHjJEoG3b4OBxOGKY9o5h1B+CZ2f5sakh/03T4pR2MLN&#xA;HT6G9SuQOnHQt8O1ZfxRHw/BZNpf5ieW75gjytZSmgC3ICqT3+MFkp/rEZVLDIObi7QxS6172So6&#xA;OiujBkYAqwNQQehBypzgbbxV2KuxV2KuxV2KuxV2KuxVLtS1/TrCVbd2ae+kFYrG3Uyzv7hF+yu3&#xA;2moviclGBLTkzxia5y7hzUI4dd1A87x/0ZanpaQMHuGH/Fk4qqVHaLcdnw2By3QBOXP0ju6/P9Xz&#xA;TO2tbe2j9OCMRoTyanVmPVmPVmPcnc5Em22MQOSrgZOxV2KuxV2KuxV2KuxV2KuxV2KsZ1zzraWh&#xA;a3seNxcjZpOsan6PtH5ZbDETzdfqNeI7R3P2MI1C8vdSmEl3O07/ALIPQV/lUbD6MyAAOTqMmSUz&#xA;cjaZab5D1S8o8oFpCf2pAedPZOv30yEsoDkYuz5y5+kMisvy60KGhuTJdNT4gzcEPyCUb/hsrOYu&#xA;fDs3GOe6aweVfLkAomnQMP8AixRIfvflkDkl3uRHSYh/CFRvLugMCDptrQim0MYP3gYOM97L8vj/&#xA;AJsfkl915D8r3Ab/AET0Xb9uJ3Uj5CpX8MkMsg0y0GI9KY/qX5WDdtOu6+EVwN/+DQf8a5bHP3uH&#xA;k7K/mn5pHby+afKtyFo8KE1MEnxwP0rSh4/SprkyIzcSMs2nPd9zPvLvm+w1cCFh9WvqbwMahqd0&#xA;bavy65jzxmLt9NrI5NuUk+ytzHYq7FXYq7FXYqlOs+adF0j4Lqflcn7FrEOcrE9BxHStduVMnHGS&#xA;4+bVQx8zv3dUsjHm7XTykJ0DS2/YWjXsin/KIpF93IZL0x8y0jxsv+1x/wBl+xO9K0TTNKiZLKEI&#xA;0h5TTMS0sjdeUkjVZjv3OQlInm5OLDGA9IR2RbXYq7FXYq7FXYq7FXYq7FXYq7FXE03PTFXm/m/z&#xA;2bl5NP0x6Woqs1wp3k7FVP8AJ+v5dcrHircuk1mu4vTDl396QaLp2oavdC3s05EbySHZEHixyyUg&#xA;ObhYcMshqL0/QvK+n6SgYD17v9q4cb9P2B+yPxzEnkJd9p9JHH5nvTjIOU7FXYq7FXYq7FVO4tre&#xA;5haG4jWWJvtI4BB+/CDTGURIUdwwfX/JLWdb3TCzRIeTRVPOOm9VPUgfeMvhlvYuo1OhMfVDkmfl&#xA;XzUbrjYX7D6z0hm/35Ts3+V+v59Y5Mdbhv0es4vTLmynKXZOxV2KpRq3mnSNNqksvqzjb0IqMwI/&#xA;m7L9JyccZLjZtXDHzNljg1Pzd5kcx6eP0bYVo9wpIP8AyM2JO37AHvlvDGPPcuCMubP9Ppj3/t/U&#xA;n+g+UdJ0j96ievend7uXd6nrx/l/X4nK55DJzcGkhj35y707ytynYq7FXYq7FXYq7FXYq7FXYq7F&#xA;XYq7FXnP5nedBBy0GxekrAfX5B2UioiB9xu3tt45k4MfUuo7R1dfu4/H9TBfL+m3ut6nFYWg+J/i&#xA;kkpVY4x9p29h+vbL5yERbq8GI5JcIe5aLotlpFilnaJRVH7yQ05O3dmPjmDKRJsvTYcMccaCOyLa&#xA;7FXYq7FXYq7FXYq7FXYqwjzp5bMKtq2nrxC/FdRL2/4sUD/hvv8AHMjFPoXU67S164/H9aaeUvNM&#xA;Wp2DrdSKl1aLWdmIUMnaTf8A4b+3IZMdHZyNHqhOPq5j8Wt1Tz9otmWS3JvZhtSM0jqD/Of+NQcY&#xA;4SUZe0MceXqLFL7zdrWqSCBGKLIeK28AILV2ptVmr4ZcMYDrcmsyZNvsCf6D5IFFuNVALdVtQdv9&#xA;mw/UP7Mrnl7nM0/Z/WfyZgiJGipGoRFFFVRQADoABlDtAANg3il2KuxV2KuxV2KuxV2KuxV2KuxV&#xA;2KuxVKPNvmGHy/oN1qclGeNeNvGf25W2Reo2ruadq5PHDiNNGpzjFAyfN8+pz3NxLcTuZJ5naSVz&#xA;1ZmNSfpObICnkpTJNnmXvn5c+Vv0FoaPcJx1K9Aluq9UH7EXtxB3965r80+I+T02g03hw3+o82V5&#xA;U5zsVdirsVdirsVdirsVdiqUat5t8u6VyW8vY1mXYwIfUlrStCi1K/7KgycccjycfLqscOZYVq/5&#xA;tmQNFpdoFRgR61z8RoRT+7U0H0sfll8dP3uty9qXtAfNgv1wkk1pXrTYZfTqrR+j2V/q16lnZJzl&#xA;fqeiovdnPYDBIgCy2YscskuGL1zy35VsdFh5D9/esP3lyw3/ANVB+yP15hzyGT0Om0kcQ75d6d5W&#xA;5TsVdirsVdirsVdirsVdirsVdiqCXXNGa7Nkt/b/AFwMUNr6qCXkDSnCvL8Mlwnm1+LG6sWjci2O&#xA;xV2KvEfz88yltTsdBif93bJ9auVB29WSqoGHiqAn/ZZm6WG1ug7Yz+oQHTf8fjqxv8ptEXXfOFuk&#xA;yh7SxU3dwp6MIyAi7gg1kZajuK5bnlwxcTs7D4mUXyG76SzWvVOxV2KuxV2KuxVD3upadYRiW+uo&#xA;bWM7B55FjUn5sRhAJ5MZzjHmaYxqn5r+SbDmovTeSoaGO1QyV9w54xEf7PLY4JFw8naOGPW/d+KY&#xA;nqn56SFmXStNVVDfDLdMWJX3jj40P+zOWx03eXBydrn+GPz/AB+lh2q/mB5n1UFLvUJPRIIMMVIk&#xA;Knsypx5f7KuXRxRHRwMusyz5lJhde+TpxrXi698aTarHO7txQFmoTQCpoBU/cMVD1n8mr+1m0u/t&#xA;lRVuopVeSQD4njdaJU9TxKt9+YeoG4d72TMGJHW3omY7tnYq7FXYq7FXYq7FXYq7FXYq7FXYqh7/&#xA;AE3TtQg+r39rDdwVr6U8aypX/VcEYQSOTGcIyFSFsauPyx8vUb9FXF/oLu3KRtLu5YFPt6ZLxAfJ&#xA;MsGY9aPvcU6GH8JlD+qa/Ykl55Q/NzT4+OhecEvIwSRDqNvHzApsPW4Tsx2/ycmMmM84tEtPqY/R&#xA;kv3j9O6QX/nf8+dDjC3/AJcgvUFSbiGF7iqr1LfVZSEH+soywY8UuRceeq1mPnAH4X9xeN+ZvNV9&#xA;5g1271e+VI7q6ZeccYKqvBBGqgEk7Ko65mQgIig6PPnOSZkeZZP+W35pQeTI76ul/X5r4x1l9f0e&#xA;KxBqKB6cnUua75Vmw8fVy9Frhgv03fn+xmo/5yZjP/TOn/pM/wCvGU/k/Nzv5b/ofb+xd/0MvFXb&#xA;y8af8xn/AF4x/J+a/wAt/wBD7f2Ob/nJUFSE8vgNT4SbuoB9wIR+vH8n5r/Lf9D7f2JbP/zkX5kZ&#xA;v9H06yjXwk9WQ/eHjyQ0ke9qPbOToB9qWXv57ee7l+UNxBZD+SCBSO3+/vVP45IaaAaZ9q5jyIHw&#xA;/XaS3v5j+c752a41q6+MEMsUhhQg9Rwi4L+GTGGI6OPPW5Zc5FU0fyf501wiWx0u5mSQchcSD0o2&#xA;HiJZSiH78ZZIx5lOPS5cnKJZrpX5E+Zp+DajfW1kjCpWPlPIp8Cv7tPufKZamPRzsfZGQ/UQPtZN&#xA;Y/kPoUcf+naldXEn80IjhX/gWWU/8NlR1R6By4djwHMk/j4pxa/k/wCRoFpJay3JpTlLPID8/wB2&#xA;YxkDqJt8ezMI6X8UT/yqnyD/ANWv/kvc/wDVTB48+9n/ACdg/m/af1oK7/JrybO1Yhc2g3+GGWo/&#xA;5KrJkhqJNcuy8R5WPj+tD+X/AMp49D8x22qQX/1m1i9RXtpogG4yRMn2waNu38o2wzz8Uaphg7NG&#xA;PIJA2P2MT/LWc6P+Zl3onIujG6swx2r6DGRXp8ovxy3NvC3C0B8PUGHvHy/se25hPQuxV2KuxV2K&#xA;uxV2KuxV2KuxV2KuxV2KuxV2KuxV8Ju7O7Ox+JiST7nfN28CS938h/kr5S8zeQdJ1O7a5tdSuEmM&#xA;s9tIKORPIqFkkWRfhUAfDT+OYWXUSjMjo7/S9mY8uGMjYlvy96X6x/zjT5gh+LR9Xt7xQCSlyj27&#xA;1HRV4+up+ZK4Y6wdQ15OxZj6ZA+/b9bBdX/K38xtIHK60O4dKE+pbAXKgDqW9Aycf9lTL45oHq4G&#xA;TQZoc4n4b/cxZnljco6lXU0ZWFCD7g5a4jhcNjS2uF0caW2deUvzVt/LskTw+WdLkaMgm4CzfWSQ&#xA;KErNLJPwJ/yQB7ZRkwcXUufp9eMXKEftv5m3pOmf85L+X5ajUtIurX+U27x3A+nn6GY50Z6F2kO2&#xA;4H6okfb+pluk/nN+XGpemqaulrLJ1ju0eDjv0aRh6X/D5TLTzHRzMfaWCX8Ve/8AFMusNS07UIPr&#xA;FhdQ3kFaerBIsqV/1kJGVEEc3MhOMhYNojAydirsVdirwXXLr6h+fsQhHpiS9s1NK7/WYY1fp/N6&#xA;hzOiLxPO5Tw63bvH2gPeswXonYq7FXYq7FXYq7FXYq7FXYq7FXYq7FXYq7FXYq+Ec3bwL63/ACTc&#xA;P+WGhkdAk4+lbmUH9WarUfWXr+zD+4j8fvLN8pc92KoLUtD0TVFVdT0+2vlT7AuYY5gPlzDZISI5&#xA;FrnihP6gD72Fat+Q35b6gCY7KXT5GJJktJnXr4JJ6sY+hcujqZhwsnZWCXSvcw3Vv+cYoiZH0jXG&#xA;Uf7qgu4Q30NLGy/hHlsdZ3hwsnYn82Xz/H6GIan/AM49fmLZkC2itdRBFa206rT2P1gQfhlw1UC4&#xA;U+yM45VL3H9dMYvvy38/WLulxoF9+7qXeKB5kAHU84g6U+nLBmgeriz0WaPOMvkxwhlJBqCNiD1B&#xA;yxxlS3urm3lWa3leGVDVJI2KsD7Eb4kJEiNwy3Sfzg/MfTNodbnnQmrLd8bmvtymDuPoOVSwQPRz&#xA;MfaOePKR+O/3s30j/nJrWovh1fR7e6GwD2sj25HuQ/rg/hlEtGOhc7H23IfVEH3bfrZ3o/8AzkF+&#xA;Xl/8N1NcaY9BtcwllJPUBoDN97UymWlmPN2GPtfDLncff+xnWk+YdB1hS2lajbXwUBnFvKkhUH+Y&#xA;KSV+nKJQI5hz8eaE/pILwXzhMzf85EWsQ/Z1DS/uEcDHM7H/AHPwLz2pP+Gj+tH9D6KzXvSuxV2K&#xA;uxV2KuxV2KuxV2KuxV2KuxV2KuxV2KuxV8ReYtN/RfmDU9NrX6ldT29R0PpSMleg8M3UDYBeFzQ4&#xA;JmPcS97/ACF88aDB5LXSdU1S1s7qzuZUt4LiVImaKQiUFeZXl+8d+mYGpxnisB6DsrVQGLhkQCC9&#xA;hR0kRZI2Do4DI6moIO4IIzEd0C3iriQASTQDqcVSK/8APfkrT1c3mu2MTR/aj+sRtJ4bRqS5+gZM&#xA;YpHo489VijzkPmxHV/8AnIT8vLEUtZbnU3IP+80JRQfBjP6P3gHLo6WZ8nDydr4Y8rl7h+umBa5/&#xA;zkvr9wDHoulwWCkEGW4ZriSvZlAESL8iGy+OjHUuvy9tTP0xA+15x5h8+ecPMXIaxqs9zE1CbYN6&#xA;cFV2B9GMJHX341zIhijHkHW5tXlyfVIn7vklmn6Pq+oyCPT7G4vJD0S3ieU/cgOSMgObVDHKX0gl&#xA;Obb8tPzAuW4x+Xr9T/xbA8Q295AuQOaHeG6OizH+CXyTZPyO/NF1DDRCAwBHK5tQd/EGWoyP5mHe&#xA;3DsvUfzftH61VPyI/M9hU6UinwNzbV/CQ4PzMO9P8lZ/5v2hs/kP+ZwBP6LQ+31m3/5rx/Mw70/y&#xA;Vn7vtCxfyP8AzVRg6aOVdTVWW6tAQfY+tj+Zx96P5L1H837R+tItHm85Sea1u9OFxqPmGxbmHUfX&#xA;ZK24Edf92h1QAKDuOlO2WS4eHfYOPjOXxLjcpj48nr1n+dv5h6WgbzR5Pn9A0AuI4bi0oBQMSJVl&#xA;Vjv2K5iHTwP0ydzHtPND+8xn7QyvRfz6/LvUjwnuptMmLBVjvYioNe/OL1YwP9ZhlUtNMebl4u1c&#xA;MuZ4fezrTtV0vU4TPpt5BewA0MtvIkqV8OSFhlBiRzc+GSMhcSCisDN2KuxV2KuxV2KuxV2KuxV2&#xA;KuxV2KuxV8sfn5oR0z8wrm4VQsGqRR3cYANA1PTkHzLxlj882ellcPc8n2ti4cxP87d5xmQ61fHL&#xA;LGaxuyHxUkfqxUGkYdf10xmM6ldGMjiUM0lKdKU5dMHCO5s8WfefmhGeeZwGZpHOwqSx+WFhZLLd&#xA;C/KL8wtZo1vo81vCSKz3lLZaHcMBLxdh/qqcqlngOrl4uz80+Ua9+z0DR/8AnGO9YK+s63HEQfih&#xA;s4mkqvtLIY6H/YHMeWsHQOxx9iH+KXyZvpf5AflvZKRPa3GotWoe6ncEfRB6C/eMplqplz8fZOCP&#xA;ME+8/qpl2neTfKWmsj2GjWVtIlOMsdvEsm3T4+PIn6cqOSR5lzIabHHlED4JxkG52KuxV2KuxVj3&#xA;5g+ZF8t+TtU1YPwnhhKWnQn6xL8EWx60dgT7A5ZihxSAcbV5vCxSl+LeS/8AOMugyG51jzA4IRUW&#xA;wgbsxYiaYfNeMf35layXIOo7Exbyn8P1/oe95gvQIW/0rS9RjEWoWcF5GOiXEaSqK0rs4PhhEiOT&#xA;CeOMvqAKRT/ll5DluY7pNHhtLiL+7msS9k4PiDatCa5YM0u9oOiwk3w0fLb7kdZ+X7uw2tdZvXiB&#xA;qtveNHdJ13BkdPrB/wCR2RMr6M44THlI/Hf9v2pzkG92KuxV2KuxV2KuxV2KuxV2KuxVQv7+y0+z&#xA;lvb6dLa0gXnNPKwVFHiScIBOwYzmIiyaD5c/OT8yrXznqttDp8HDS9LMq2ty4IlmMpXm5U/ZQ+mv&#xA;FaV7nrQbPT4eAb8y8p2jrRmkBEemP2vO8vdcyryh+WfnDzWBLpVnSyLcGv52EcCkddzVnp34K2V5&#xA;M0Y83L0+iy5fpG3f0eueW/8AnGrR4Ak3mHUZL2UULWtqPRhB7qXblI49xwOYk9Wegdxh7FiN5m/d&#xA;+P1PT9A8m+VfL6AaPpdvZsBx9ZErMR4NK3KRvpbMaWSUuZdpi02PH9MQE5yDe7FXYq7FXYq7FXYq&#xA;7FXYq+dv+chPOZ1bW7bynpzetDp7h7oR/EXvHHFYxStTGrU2/aYg7jNhpcdDiLzfa+p45jHHp972&#xA;X8u/Ki+VvKFhpBA+sonq3rrT4p5Pik3HUKfhB8AMw8s+KRLu9Hg8LGI9evvZJlbkuxV2KuxV2Kux&#xA;V2KuxV2KuxV2KuxV2KuxVIPN3nfQPK1n6+pTVmcfuLOKjTSf6q1FF8WO305ZjxmR2cbU6uGEXI/D&#xA;q+c/PHnfzR56v47d0dLISf6FpFvyccjspagrLJTatPkBU5sMeOMA8zqtXk1Eq6dAPxumnlj/AJx8&#xA;81aqEn1Rk0a0YAgSj1Lggio/cqRx9+bKR4ZGeqiOW7dg7IyT3l6R9vySH8zPy0uPJ2tLBG73GmXS&#xA;87G6YfEaUDo9ABzU+HYg+2Tw5uMebRrtGcE65xPJMvye/MKTyhq7Wd+zHQb9h9ZG59GTos6qK9tn&#xA;A6jxoBkdRi4xtzbOztb4MqP0H7PN9QxSxyxpLE4kjkAZHUgqykVBBHUHNY9WDa7FLsVdirsVdirs&#xA;VdirsVdirAvza/Mu28naMYbV1fX71CLGHZjGp2Nw6mo4qfsgj4m26BqX4MPGfJ1/aGtGGND6zy/W&#xA;8w/ITyHcazrbebtVVpLOykLWjS7me8rUyEmpIiryr/PTwOZOpy0OEOq7K0pnPxJch9p/Z976MzXv&#xA;SuxV2KuxV2KuxV2KuxV2KuxV2KuxV2KrJpoYInmnkWKGMFpJHIVVA6kk7AYgIJAFl5x5j/NG8up2&#xA;0rybave3rVBvRGXVR3McdPip/M3w+xGZMMFbydRn7SMjw4RZ70m0n8ldW1a7bUvNuoOJZjylijcS&#xA;3DGlAHlbki0oPs8tvDJy1AG0Q04uypzPFlP6/m9N0Dyn5d8vxGPSbGO2LCjzAcpWFa0aRquRXtWm&#xA;Y0shlzdvh02PGPSKTbIN6Uea/LGm+ZdFm0q/X4JPihlAq0UoBCyL7iv0jbJwmYmw0ajBHLAxk+Yf&#xA;Mvk/UvL+qy6dfx8ZENYpAPgljJ+GRD3B/Dod82cMgkLDyOfTyxS4ZMy/LP8ANC78t8NJ1XlcaITS&#xA;NxVpLYk9V/mj8V+keBpzYeLcc3O0HaBxemW8Pue+WN9Z39pHd2UyXFrMOUU0ZDKw6bEe+2YBBHN6&#xA;WExIWDYV8DJ2KuxV2KuxV2KuxVgX5kfm1pHlG3ktbbjf6+y/urIH4Iiw2ecj7I78ftN7A8svw4DP&#xA;3Ov1vaEcIobz7v1vCvKPlHzN+Zfmya71CeR4WcSarqbAHivaNBsvIgcUUbKO1BmdkyRxx2dBp9PP&#xA;VZLJ95fVGlaVp+k6bb6bp8K29laoI4Il6BR79ST1JO5O5zVykSbL1mPGIREY7AIrAzdirsVdirsV&#xA;dirsVdirsVdirsVdiqSan5qt7ec2WnQvqep9Pq0H2UNafvZPsoMsjj6nYOJl1YB4Yjil3D9J6JNJ&#xA;5N1nX5luPNN7S2Uho9JtCViXp9tu56g9T4Nk/EEfpaPyk8pvKdv5o/H472U6ZpGmaXb/AFfT7WO2&#xA;i2qI1ALEClWbqx9zlMpE83Ox4owFRFIvA2OxV2KuxVKPM/lXSPMenmz1COpWpguFp6kTHuh96bjo&#xA;cnCZibDRqNNDLGpPCPNf5e6x5dnPrp61kzUhvYweDeAb+RvY/RXM7HlEnmNTop4TvvHvQ/lvzJr/&#xA;AJbuPV0y4KxMay2r1aGTp9pK9duooffDOAlzY6fUzxG4n4dHq3l/84tCvEWPVo30656M9DJATt0Z&#xA;RzWvgVoPHMWenI5bu7wdq45fX6T9jOLLUbC+i9ayuYrqKtC8LrItfCqk5QQRzdlDJGQuJtEYGbsV&#xA;dirHNc/MPyhoysLrUI5Z1B/0a3/fSFh+yQlQp/1yMsjikejiZtdix8zv5bvKPOH51a9qaPaaHGdK&#xA;tGqrXFQ1y43GzDaLb+WpHZsy8enA57um1Pas57Q9I+39iTeR/wAodZ80Trf6gXs9Jducl04/ez13&#xA;PpButf5zt8+mSyZxHYc2nSdnTzHiltH7/d+t9C6Loml6LpsOnaZbrbWkIoka9z3Zid2Y9ycwJSMj&#xA;ZemxYo448MRQR2RbHYq7FXYq7FXYq7FXYq7FXYq7FUHd6ta2831deVxeEAi0gHOShNAzbhUX/Kcg&#xA;e+EBrlkA25lCNYapqS/7kZfqds3WytmPJgabSzUB8QQlPmclYHJpOOeT6jUe4fpP6kwsrCysYBBa&#xA;QpBEP2UFKnpU+J9zkSSebfjxxgKiKCvgZuxV2KuxV2KuxV2KrZYoponilRZIpAVeNwGVlOxBB2Ix&#xA;QQCKLBPMH5SaReM8+lSfUZjU+iQXhJ9v2k38Kj2zIhqCObq9R2VCW8PSfsYJqv5deZdPJ52TTxAk&#xA;CW3/AHqkDvRfiA/1lGXxzRLqcugyw6X7t0hW1mgl5IWilU7MpKsD9G+WW4osFMovM/m2FuSavdkj&#xA;+eZ3H3OWGR4I9zeNXlH8Uvmvm84+c5F4tq1wB4q3E/eoBweHHuSdbmP8RSy6uPMGrMsFxd3d+Sfg&#xA;ieSSbf2UlskAA1SyZJ7EmX2prpP5UeatSIZrYWMJrWW6Ppnbt6dDJ/wtMjLPEOTi7Nyz6cI8/wAW&#xA;9G8s/lF5a0hluLxf0peLuGmUCFTv9mL4gev7RPiKZjT1Ejy2dvp+zMePc+o/Z8mc5Q7J2KuxV2Ku&#xA;xV2KuxV2KuxV2KuxV2KqVzbmeP0/VkiUkFjEQrMO68qVFfFaHwOKCLatLO1tIvStoliSvJgo3Zj1&#xA;Zj1Zj3J3ONqIgclbFLsVdirsVdirsVdirsVdirsVdirsVUbqxsrtQt1bx3CjoJUVx/wwOEEhhLHG&#xA;XMAoGXyt5blXi2l2oFa/DCin71AOS8SXe1HS4j/DH5Np5X8tooUaVaUHQmCNj95BODjl3pGlxD+G&#xA;PyR9vbW1tH6VvEkMY34RqFWvyFMBNtsYiIoClTAydirsVdirsVdirsVdirsVdirsVdirsVdirsVd&#xA;irsVdirsVdirsVdirsVdirsVdirsVdirsVdirsVdirsVdirsVdirsVdirsVdirsVdirsVdirsVdi&#xA;r//Z</xmpGImg:image>
               </rdf:li>
            </rdf:Alt>
         </xmp:Thumbnails>
         <xmpTPg:MaxPageSize rdf:parseType="Resource">
            <stDim:w>139.800003</stDim:w>
            <stDim:h>81.300003</stDim:h>
            <stDim:unit>Pixels</stDim:unit>
         </xmpTPg:MaxPageSize>
         <xmpTPg:NPages>1</xmpTPg:NPages>
         <xmpTPg:HasVisibleTransparency>False</xmpTPg:HasVisibleTransparency>
         <xmpTPg:HasVisibleOverprint>False</xmpTPg:HasVisibleOverprint>
         <xmpTPg:PlateNames>
            <rdf:Seq>
               <rdf:li>Cyan</rdf:li>
               <rdf:li>Magenta</rdf:li>
               <rdf:li>Yellow</rdf:li>
               <rdf:li>Black</rdf:li>
            </rdf:Seq>
         </xmpTPg:PlateNames>
         <xmpTPg:SwatchGroups>
            <rdf:Seq>
               <rdf:li rdf:parseType="Resource">
                  <xmpG:groupName>Default Swatch Group</xmpG:groupName>
                  <xmpG:groupType>0</xmpG:groupType>
               </rdf:li>
            </rdf:Seq>
         </xmpTPg:SwatchGroups>
         <dc:format>image/svg+xml</dc:format>
      </rdf:Description>
   </rdf:RDF>
</x:xmpmeta>
                                                                                                    
                                                                                                    
                                                                                                    
                                                                                                    
                                                                                                    
                                                                                                    
                                                                                                    
                                                                                                    
                                                                                                    
                                                                                                    
                                                                                                    
                                                                                                    
                                                                                                    
                                                                                                    
                                                                                                    
                                                                                                    
                                                                                                    
                                                                                                    
                                                                                                    
                                                                                                    
                           
<?xpacket end="w"?>
	</metadata>
<circle class="st0" cx="69.9" cy="40.6" r="40"/>
<g>
	
		<linearGradient id="SVGID_1_" gradientUnits="userSpaceOnUse" x1="75.749" y1="93.6418" x2="63.9547" y2="-6.9108" gradientTransform="matrix(1 0 0 -1 0 84)">
		<stop  offset="0" style="stop-color:#00717D"/>
		<stop  offset="0.23" style="stop-color:#83CDCC"/>
		<stop  offset="0.49" style="stop-color:#006B77"/>
		<stop  offset="0.71" style="stop-color:#006B77"/>
		<stop  offset="0.89" style="stop-color:#6DC6C3"/>
		<stop  offset="1" style="stop-color:#030D0F"/>
	</linearGradient>
	<path class="st1" d="M3,77.8c-0.5,0-1.1-0.3-1.3-0.8c-0.4-0.7-0.1-1.6,0.6-2c16.9-9,28.2-16.2,33.6-21.2
		c-2.1-5.6-2.9-11.6-2.1-17.5c-5-1.3-10.3-2.7-16-4.3c-0.8-0.2-1.2-1-1.1-1.8c0.2-0.7,0.8-1.2,1.5-1.2c0.1,0,0.2,0,0.3,0
		c5.6,1.1,11.1,1.9,16.3,2.4c1.5-5.5,4.3-10.6,8.1-14.9C49.7,9.2,59.4,4.9,69.5,4.9c9,0,17.6,3.3,24.2,9.4c2.2,2,4.1,4.2,5.7,6.6
		c10.3-4.3,20.8-9.4,32.9-15.4l3.7-1.8c0.2-0.1,0.4-0.2,0.7-0.2c0.5,0,1.1,0.3,1.3,0.8c0.4,0.7,0.1,1.6-0.6,2
		c-17.8,9.5-29.3,16.8-34.3,21.9c1.9,5.1,2.6,10.7,2.1,16.2c5.2,1.4,10.9,2.9,16.9,4.6c0.8,0.2,1.2,1,1.1,1.8
		c-0.2,0.7-0.8,1.2-1.5,1.2c-0.1,0-0.2,0-0.3,0c-5.9-1.2-11.7-2-17.1-2.5c-1.4,5.9-4.3,11.3-8.4,15.8C89.1,72.8,79.4,77,69.3,77
		c-9,0-17.6-3.3-24.2-9.4c-2.2-2-4.2-4.3-5.8-6.8c-9.3,4-18.8,8.6-29.7,14c-2,1-4,2-6,3C3.5,77.7,3.2,77.8,3,77.8z M46.9,57.6
		c1.2,1.7,2.6,3.3,4.2,4.8c5.4,4.9,12.4,7.7,19.8,7.7l0,0c8.2,0,16.2-3.5,21.7-9.6c3-3.3,5.2-7.2,6.5-11.5c-2.4-0.1-4.8-0.2-7.2-0.2
		C76.9,48.7,62.9,51.5,46.9,57.6z M42.2,46.7c2.4,0.6,5.1,0.9,7.9,0.9c5.4,0,11.7-1.1,18.8-3.2c-6.9-1.2-16.1-3.3-27.3-6.1
		C41.4,41.1,41.6,43.9,42.2,46.7z M71.1,36.5c7.3,1.3,17,3.5,29.1,6.6c0.2-2.7,0.1-5.5-0.5-8.2c-0.1,0-0.3,0.1-0.5,0.1
		c-0.1,0-0.3,0-0.4-0.1c-2.9-0.9-6.2-1.3-9.8-1.3C83.8,33.6,77.7,34.5,71.1,36.5z M42.8,32c1.7,0.1,3.5,0.1,5.2,0.1l0,0
		c15.4,0,29.8-2.8,46.3-9.2c-1.1-1.4-2.3-2.8-3.7-4c-5.4-4.9-12.4-7.7-19.8-7.7c-8.2,0-16.2,3.5-21.7,9.6
		C46.3,24.1,44.1,27.9,42.8,32z"/>
	<path class="st0" d="M136.8,5L136.8,5 M136.8,5c-18.8,10-30.6,17.7-35.3,22.9c2.3,5.6,3,11.7,2.2,17.6c5.6,1.5,11.6,3.1,18.2,4.9
		c-6.6-1.3-12.7-2.2-18.6-2.7c-1.2,5.9-4,11.6-8.3,16.4c-6.8,7.5-16.1,11.3-25.5,11.3c-8.3,0-16.6-3-23.2-9
		c-2.5-2.3-4.6-4.9-6.3-7.6C28.6,63.5,16.7,69.5,3,76.3c17.9-9.6,29.5-16.9,34.6-22.1c-2.5-6-3.2-12.6-2.2-19
		c-5.3-1.4-11.1-2.9-17.3-4.6c6.2,1.2,12.1,2.1,17.7,2.6c1.3-5.6,4-10.9,8.1-15.5C50.7,10.2,60,6.4,69.4,6.4c8.3,0,16.6,3,23.2,9
		c2.4,2.2,4.5,4.7,6.1,7.4C110.6,18,122.8,11.9,136.8,5 M48,33.6c17.8,0,32.9-3.8,48.7-10c-1.4-2.1-3-4-5-5.8
		c-5.9-5.4-13.4-8.1-20.8-8.1c-8.4,0-16.7,3.4-22.8,10.1c-3.6,4-6,8.7-7.2,13.6C43.3,33.6,45.7,33.6,48,33.6 M99.2,33.5
		c-3.1-0.9-6.5-1.4-10.2-1.4c-7,0-15.1,1.6-24.4,4.9c7.8,1,20.1,3.7,36.8,8c0.7-5,0.2-10.2-1.6-15C99,31.3,98.8,32.5,99.2,33.5
		 M50.1,49.1c7.2,0,15.7-1.8,25.2-5.2c-7.5-1-19.2-3.5-35-7.5c-0.5,3.8-0.3,7.7,0.6,11.5C43.7,48.7,46.8,49.1,50.1,49.1 M70.9,71.5
		c8.4,0,16.7-3.4,22.8-10.1c3.7-4.1,6.1-8.9,7.3-13.9c-3.1-0.2-6.1-0.3-9.1-0.3c-17.4,0-32,3.6-47.3,9.6c1.5,2.4,3.3,4.6,5.5,6.6
		C56,68.8,63.5,71.5,70.9,71.5 M136.8,2c-0.2,0-0.4,0-0.7,0.1s-0.5,0.1-0.7,0.3l-3.7,1.8C120,9.9,109.9,14.9,100,19.1
		c-1.5-2.1-3.3-4.1-5.3-5.9c-6.9-6.3-15.9-9.8-25.2-9.8C59,3.4,48.9,7.9,41.8,15.6c-3.7,4.1-6.5,9-8.1,14.2
		c-4.8-0.5-9.8-1.3-14.9-2.3c-0.2,0-0.4-0.1-0.6-0.1c-1.4,0-2.6,0.9-2.9,2.3c-0.4,1.6,0.6,3.2,2.1,3.6c5.2,1.4,10.1,2.8,14.8,4
		c-0.5,5.4,0.2,10.8,2,15.9c-5.6,5-16.5,11.8-32.6,20.4c-1.4,0.8-2,2.6-1.3,4c0.5,1,1.6,1.6,2.7,1.6c0.4,0,0.9-0.1,1.3-0.3
		c2-1,4-2,6-3c10.5-5.2,19.6-9.7,28.5-13.5c1.6,2.2,3.4,4.2,5.4,6.1c6.9,6.3,15.9,9.8,25.2,9.8c10.5,0,20.6-4.5,27.7-12.2
		c4-4.3,6.8-9.5,8.4-15.2c5,0.5,10.3,1.3,15.7,2.4c0.2,0,0.4,0.1,0.6,0.1c1.4,0,2.6-0.9,2.9-2.3c0.4-1.6-0.6-3.2-2.1-3.6
		c-5.6-1.5-10.9-3-15.8-4.2c0.3-5-0.4-9.9-2-14.6c5.2-4.9,16.4-11.9,33.2-20.9c1-0.5,1.7-1.5,1.7-2.7C139.7,3.5,138.5,2.2,136.8,2
		C136.9,2,136.8,2,136.8,2L136.8,2z M136.8,8L136.8,8L136.8,8L136.8,8z M44.9,30.6c1.2-3.2,3.1-6.2,5.4-8.7
		c5.3-5.8,12.8-9.1,20.6-9.1c7,0,13.6,2.6,18.8,7.3c0.8,0.7,1.5,1.4,2.2,2.2C76.3,28,62.6,30.6,48,30.6C47,30.6,46,30.6,44.9,30.6
		L44.9,30.6z M78,36.3c4-0.8,7.6-1.2,11-1.2s6.6,0.4,9.4,1.3l0,0c0.2,1.6,0.4,3.2,0.3,4.8C90.8,39.1,83.9,37.5,78,36.3L78,36.3z
		 M43.5,45.5c-0.3-1.7-0.4-3.5-0.4-5.3c7.3,1.8,13.7,3.3,19.1,4.4c-4.4,1-8.5,1.5-12.1,1.5C47.7,46.1,45.5,45.9,43.5,45.5L43.5,45.5
		z M49.3,58.3c15-5.5,28.3-8,42.6-8c1.7,0,3.4,0,5.1,0.1c-1.2,3.3-3.1,6.4-5.5,9.1c-5.3,5.8-12.8,9.1-20.6,9.1
		c-7,0-13.6-2.6-18.8-7.3C51.1,60.3,50.2,59.3,49.3,58.3L49.3,58.3z"/>
	
		<linearGradient id="SVGID_2_" gradientUnits="userSpaceOnUse" x1="75.6003" y1="91.9481" x2="64.202" y2="-5.2293" gradientTransform="matrix(1 0 0 -1 0 84)">
		<stop  offset="0" style="stop-color:#00717D"/>
		<stop  offset="0.23" style="stop-color:#83CDCC"/>
		<stop  offset="0.49" style="stop-color:#006B77"/>
		<stop  offset="0.71" style="stop-color:#006B77"/>
		<stop  offset="0.89" style="stop-color:#6DC6C3"/>
		<stop  offset="1" style="stop-color:#030D0F"/>
	</linearGradient>
	<path class="st2" d="M44,17.6c12.8-14,34.6-15.1,48.7-2.2c2.4,2.2,4.5,4.7,6.1,7.4c11.8-4.8,24-10.9,38-17.8
		c-18.8,10-30.6,17.7-35.3,22.9c2.3,5.6,3,11.7,2.2,17.6c5.6,1.5,11.6,3.1,18.2,4.9c-6.6-1.3-12.7-2.2-18.6-2.7
		c-1.2,5.9-4,11.6-8.3,16.4c-12.8,14.1-34.6,15.1-48.7,2.3c-2.5-2.3-4.6-4.9-6.3-7.6C28.6,63.5,16.7,69.5,3,76.3
		c17.9-9.6,29.5-16.9,34.6-22.1c-2.5-6-3.2-12.6-2.2-19c-5.3-1.4-11.1-2.9-17.3-4.6c6.2,1.2,12.1,2.1,17.7,2.6
		C37.1,27.5,39.8,22.2,44,17.6L44,17.6z M99.2,33.5C90.3,30.8,78.8,32,64.7,37c7.8,1,20.1,3.7,36.8,8c0.7-5,0.2-10.2-1.6-15
		C99,31.3,98.8,32.5,99.2,33.5L99.2,33.5z M96.7,23.6c-1.4-2.1-3-4-5-5.8c-12.6-11.5-32.1-10.6-43.6,2c-3.6,4-6,8.7-7.2,13.6
		C61.9,34.6,78.9,30.7,96.7,23.6L96.7,23.6z M40.3,36.4c-0.5,3.8-0.3,7.7,0.6,11.5c8.9,2.5,20.5,0.9,34.4-4
		C67.8,43,56.1,40.5,40.3,36.4L40.3,36.4z M44.6,56.8c1.5,2.4,3.3,4.6,5.5,6.6c12.6,11.5,32.1,10.6,43.6-2c3.7-4.1,6.1-8.9,7.3-13.9
		C79.5,46.1,62.4,49.8,44.6,56.8z"/>
	
		<linearGradient id="SVGID_3_" gradientUnits="userSpaceOnUse" x1="75.6003" y1="91.9481" x2="64.202" y2="-5.2293" gradientTransform="matrix(1 0 0 -1 0 84)">
		<stop  offset="0" style="stop-color:#00717D"/>
		<stop  offset="0.23" style="stop-color:#83CDCC"/>
		<stop  offset="0.49" style="stop-color:#006B77"/>
		<stop  offset="0.71" style="stop-color:#006B77"/>
		<stop  offset="0.89" style="stop-color:#6DC6C3"/>
		<stop  offset="1" style="stop-color:#030D0F"/>
	</linearGradient>
	<path class="st3" d="M44,17.6c12.8-14,34.6-15.1,48.7-2.2c2.4,2.2,4.5,4.7,6.1,7.4c11.8-4.8,24-10.9,38-17.8
		c-18.8,10-30.6,17.7-35.3,22.9c2.3,5.6,3,11.7,2.2,17.6c5.6,1.5,11.6,3.1,18.2,4.9c-6.6-1.3-12.7-2.2-18.6-2.7
		c-1.2,5.9-4,11.6-8.3,16.4c-12.8,14.1-34.6,15.1-48.7,2.3c-2.5-2.3-4.6-4.9-6.3-7.6C28.6,63.5,16.7,69.5,3,76.3
		c17.9-9.6,29.5-16.9,34.6-22.1c-2.5-6-3.2-12.6-2.2-19c-5.3-1.4-11.1-2.9-17.3-4.6c6.2,1.2,12.1,2.1,17.7,2.6
		C37.1,27.5,39.8,22.2,44,17.6L44,17.6z M99.2,33.5C90.3,30.8,78.8,32,64.7,37c7.8,1,20.1,3.7,36.8,8c0.7-5,0.2-10.2-1.6-15
		C99,31.3,98.8,32.5,99.2,33.5L99.2,33.5z M96.7,23.6c-1.4-2.1-3-4-5-5.8c-12.6-11.5-32.1-10.6-43.6,2c-3.6,4-6,8.7-7.2,13.6
		C61.9,34.6,78.9,30.7,96.7,23.6L96.7,23.6z M40.3,36.4c-0.5,3.8-0.3,7.7,0.6,11.5c8.9,2.5,20.5,0.9,34.4-4
		C67.8,43,56.1,40.5,40.3,36.4L40.3,36.4z M44.6,56.8c1.5,2.4,3.3,4.6,5.5,6.6c12.6,11.5,32.1,10.6,43.6-2c3.7-4.1,6.1-8.9,7.3-13.9
		C79.5,46.1,62.4,49.8,44.6,56.8z"/>
</g>
</svg>
