<?xml version="1.0" encoding="utf-8"?>
<!-- Generator: Adobe Illustrator 23.0.0, SVG Export Plug-In . SVG Version: 6.00 Build 0)  -->
<!DOCTYPE svg PUBLIC "-//W3C//DTD SVG 1.1//EN" "http://www.w3.org/Graphics/SVG/1.1/DTD/svg11.dtd" [
	<!ENTITY ns_extend "http://ns.adobe.com/Extensibility/1.0/">
	<!ENTITY ns_ai "http://ns.adobe.com/AdobeIllustrator/10.0/">
	<!ENTITY ns_graphs "http://ns.adobe.com/Graphs/1.0/">
	<!ENTITY ns_vars "http://ns.adobe.com/Variables/1.0/">
	<!ENTITY ns_imrep "http://ns.adobe.com/ImageReplacement/1.0/">
	<!ENTITY ns_sfw "http://ns.adobe.com/SaveForWeb/1.0/">
	<!ENTITY ns_custom "http://ns.adobe.com/GenericCustomNamespace/1.0/">
	<!ENTITY ns_adobe_xpath "http://ns.adobe.com/XPath/1.0/">
]>
<svg version="1.1" id="Layer_1" xmlns:x="&ns_extend;" xmlns:i="&ns_ai;" xmlns:graph="&ns_graphs;"
	 xmlns="http://www.w3.org/2000/svg" xmlns:xlink="http://www.w3.org/1999/xlink" x="0px" y="0px" viewBox="0 0 31 31"
	 style="enable-background:new 0 0 31 31;" xml:space="preserve">
<style type="text/css">
	.st0{fill:url(#SVGID_1_);}
	.st1{fill:url(#SVGID_2_);}
	.st2{fill:url(#SVGID_3_);}
	.st3{fill:url(#SVGID_4_);}
</style>
<metadata>
	<sfw  xmlns="&ns_sfw;">
		<slices></slices>
		<sliceSourceBounds  bottomLeftOrigin="true" height="183.8" width="195" x="-42.5" y="0.7"></sliceSourceBounds>
	</sfw>
</metadata>
<g>
	<linearGradient id="SVGID_1_" gradientUnits="userSpaceOnUse" x1="15.5" y1="30.3404" x2="15.5" y2="0.6596">
		<stop  offset="0" style="stop-color:#006B77"/>
		<stop  offset="1" style="stop-color:#0BD8CE"/>
	</linearGradient>
	<path class="st0" d="M15.5,30.3c-8.2,0-14.8-6.7-14.8-14.8S7.3,0.7,15.5,0.7s14.8,6.7,14.8,14.8S23.7,30.3,15.5,30.3z M15.5,3.6
		C9,3.6,3.6,9,3.6,15.5C3.6,22,9,27.4,15.5,27.4c6.5,0,11.9-5.3,11.9-11.9C27.4,9,22,3.6,15.5,3.6z"/>
</g>
<linearGradient id="SVGID_2_" gradientUnits="userSpaceOnUse" x1="16.569" y1="22.8263" x2="16.569" y2="8.1619">
	<stop  offset="0" style="stop-color:#006B77"/>
	<stop  offset="1" style="stop-color:#0BD8CE"/>
</linearGradient>
<path class="st1" d="M9.9,9.4v12.2c0,0.9,1,1.5,1.8,1.1l10.9-5.8c0.8-0.4,0.9-1.7,0-2.1L11.7,8.3C10.9,7.9,9.9,8.4,9.9,9.4"/>
<linearGradient id="SVGID_3_" gradientUnits="userSpaceOnUse" x1="71.5112" y1="-117.2115" x2="178.0898" y2="-118.5205">
	<stop  offset="0" style="stop-color:#006B77"/>
	<stop  offset="1" style="stop-color:#0BD8CE"/>
</linearGradient>
<path class="st2" d="M116.5-84h-43C55-84,40-99,40-117.5v0C40-136,55-151,73.5-151h43c18.5,0,33.5,15,33.5,33.5v0
	C150-99,135-84,116.5-84z"/>
<linearGradient id="SVGID_4_" gradientUnits="userSpaceOnUse" x1="-636.5" y1="-117.5" x2="-441.5" y2="-117.5" gradientTransform="matrix(-1 0 0 1 -484 0)">
	<stop  offset="0" style="stop-color:#006B77"/>
	<stop  offset="1" style="stop-color:#0BD8CE"/>
</linearGradient>
<path class="st3" d="M-6.5-81.5h123c19.9,0,36-16.1,36-36s-16.1-36-36-36h-123c-19.9,0-36,16.1-36,36S-26.4-81.5-6.5-81.5z
	 M116.5-148.5c17.1,0,31,13.9,31,31s-13.9,31-31,31h-123c-17.1,0-31-13.9-31-31s13.9-31,31-31H116.5z"/>
</svg>
